<svg width="108" height="106" viewBox="0 0 108 106" fill="none" xmlns="http://www.w3.org/2000/svg">
<g style="mix-blend-mode:multiply">
<path d="M54.3372 104.943C83.4035 104.943 106.966 81.6158 106.966 52.8402C106.966 24.0646 83.4035 0.737305 54.3372 0.737305C25.2709 0.737305 1.70801 24.0646 1.70801 52.8402C1.70801 81.6158 25.2709 104.943 54.3372 104.943Z" fill="white"/>
<path d="M54.3377 105.68C24.9106 105.68 0.963867 81.9728 0.963867 52.84C0.963867 23.7073 24.9106 0 54.3377 0C83.7647 0 107.711 23.7073 107.711 52.84C107.711 81.9728 83.7647 105.68 54.3377 105.68ZM54.3377 1.47433C25.7297 1.47433 2.45309 24.5181 2.45309 52.84C2.45309 81.162 25.7297 104.206 54.3377 104.206C82.9456 104.206 106.222 81.162 106.222 52.84C106.222 24.5181 82.9456 1.47433 54.3377 1.47433Z" fill="#B1B1B1"/>
<path d="M61.8436 6.03024C62.201 6.05973 62.5137 6.07447 62.7669 6.07447L62.7371 6.31037C62.3201 6.36934 61.9627 6.67895 61.6798 7.26868L58.1354 14.2865L58.0312 14.2718L57.9418 14.257L55.6931 6.42831C55.5442 5.9123 55.291 5.63217 54.9336 5.58794L54.9634 5.35205C55.291 5.41102 55.7229 5.45525 56.259 5.51423C56.9589 5.5732 57.4802 5.61743 57.8227 5.61743L57.7929 5.85332C57.4802 5.83858 57.2568 5.85332 57.1227 5.89755C56.9887 5.94178 56.9143 6.05973 56.8994 6.20716C56.8845 6.33985 56.9143 6.53152 56.9887 6.78215L58.6418 12.7679L61.099 7.87316C61.3075 7.47509 61.4117 7.15074 61.4415 6.91484C61.4713 6.66421 61.3968 6.47254 61.233 6.33985C61.0692 6.20716 60.8011 6.13345 60.4437 6.08922L60.4735 5.85332C60.9054 5.92704 61.367 5.98601 61.8436 6.03024Z" fill="#B1B1B1"/>
<path d="M71.8512 9.14089C71.7023 9.14089 71.5831 9.19986 71.4938 9.31781C71.4044 9.43576 71.3002 9.62742 71.1959 9.90754L69.0663 15.51C68.9621 15.7901 68.9025 16.0113 68.9025 16.1587C68.9025 16.3061 68.9472 16.4241 69.0515 16.5126C69.1557 16.601 69.3493 16.7042 69.6174 16.8222L69.528 17.0433C69.1855 16.8959 68.7089 16.7042 68.0984 16.4683C67.4431 16.2177 66.9517 16.0555 66.624 15.9523L66.7134 15.7312C66.9963 15.8196 67.2048 15.8638 67.3389 15.8638C67.4729 15.8638 67.6069 15.8049 67.6963 15.6869C67.7856 15.569 67.8899 15.3773 67.9941 15.0972L70.1237 9.49473C70.2279 9.21461 70.2875 8.99346 70.2875 8.84602C70.2875 8.69859 70.2428 8.58065 70.1386 8.49219C70.0343 8.40373 69.8407 8.30052 69.5727 8.18258L69.662 7.96143C69.9748 8.09412 70.4513 8.28578 71.1066 8.53641C71.7172 8.77231 72.2086 8.93448 72.566 9.03769L72.4767 9.25884C72.2086 9.17038 72.0001 9.12615 71.8512 9.14089Z" fill="#B1B1B1"/>
<path d="M85.1047 16.9401C84.9558 16.9106 84.8069 16.9548 84.6729 17.0433C84.5388 17.1317 84.375 17.3087 84.1963 17.5593L79.8776 23.3534L79.6542 23.1913L80.235 13.8735L76.4077 19.0042C76.229 19.2548 76.1098 19.4612 76.0503 19.6234C75.9907 19.7855 76.0205 19.933 76.0949 20.0804C76.1694 20.2278 76.3481 20.39 76.6013 20.5964L76.4523 20.7881C76.229 20.5964 75.9013 20.3458 75.4695 20.0214C75.0823 19.7413 74.7695 19.5202 74.5312 19.3875L74.6802 19.1958C74.9184 19.358 75.112 19.4464 75.261 19.4612C75.4099 19.4907 75.5588 19.4464 75.6928 19.358C75.8269 19.2548 75.9907 19.0926 76.1694 18.842L79.684 14.1241C79.8627 13.8735 79.9818 13.6818 80.0265 13.5491C80.0712 13.4164 80.0563 13.2837 79.9818 13.1658C79.9073 13.0479 79.7584 12.9004 79.5201 12.7088L79.6691 12.5171C79.8627 12.694 80.1605 12.9299 80.5626 13.21C80.8605 13.4312 81.1136 13.6081 81.3519 13.7408L80.8753 21.5547L83.9729 17.3971C84.1516 17.1465 84.2857 16.9401 84.3303 16.7779C84.375 16.6157 84.3601 16.4683 84.2857 16.3209C84.2112 16.1734 84.0325 15.9965 83.7793 15.8049L83.9282 15.6132C84.1516 15.8049 84.4793 16.0555 84.9111 16.3798C85.2983 16.66 85.6111 16.8811 85.8493 17.0138L85.7004 17.2055C85.4473 17.058 85.2537 16.9548 85.1047 16.9401Z" fill="#B1B1B1"/>
<path d="M90.0941 23.5893C90.4813 23.3091 90.8834 22.9995 91.3153 22.6162C91.6876 23.1765 92.3429 24.1053 93.2811 25.4174C94.2193 26.7149 94.8894 27.6289 95.2915 28.1597C94.7852 28.4546 94.3533 28.7199 93.9661 28.9853C93.6385 29.2212 93.3704 29.4276 93.1768 29.5898L93.013 29.3686C93.4896 28.9558 93.8172 28.6167 94.0108 28.3661C94.2044 28.1155 94.2788 27.8501 94.264 27.57C94.2491 27.2898 94.0704 26.9507 93.7874 26.5379L93.4002 26.0072L87.756 29.9879C87.488 30.1795 87.2944 30.3565 87.205 30.4891C87.1157 30.6218 87.0859 30.784 87.1455 30.9609C87.1901 31.1231 87.3242 31.359 87.5178 31.6539L87.3242 31.8013C87.1008 31.4475 86.7583 30.9462 86.3115 30.3417C85.8349 29.6783 85.4775 29.2065 85.2393 28.9116L85.4329 28.7642C85.6562 29.0443 85.8349 29.236 85.9839 29.3392C86.1328 29.4424 86.2817 29.4719 86.4455 29.4276C86.6093 29.3834 86.8327 29.2654 87.1008 29.0738L92.7449 25.0931L92.3577 24.5623C92.0599 24.1495 91.7918 23.8989 91.5387 23.7809C91.2855 23.663 91.0026 23.6482 90.7047 23.7514C90.4069 23.8547 89.975 24.0463 89.424 24.3559L89.2602 24.1348C89.4835 24.0168 89.7516 23.8399 90.0941 23.5893Z" fill="#B1B1B1"/>
<path d="M92.9536 44.0532L92.7153 44.1269C92.6259 43.8026 92.5068 43.3898 92.3281 42.8885C92.1047 42.2398 91.926 41.7532 91.792 41.4289L92.0302 41.3552C92.1345 41.6353 92.2536 41.8417 92.343 41.9449C92.4472 42.0481 92.5812 42.0776 92.7302 42.0186C92.8642 41.9744 93.028 41.8712 93.2216 41.709L94.8747 40.3674L93.9364 37.6104L92.5515 37.5514C92.1047 37.5219 91.7622 37.5514 91.5239 37.6399C91.2856 37.7283 91.1367 37.861 91.0771 38.0527C91.0324 38.2443 91.0622 38.5245 91.1665 38.8636L90.9282 38.9373C90.8091 38.495 90.6601 38.0527 90.5112 37.6104C90.3921 37.2713 90.2878 36.9912 90.1836 36.77L90.4219 36.6963C90.6304 37.0501 91.0771 37.2418 91.7324 37.2565L99.6551 37.6104L99.7146 37.7873L93.4003 42.9917C93.0131 43.3603 92.8642 43.6994 92.9536 44.0532ZM98.1212 37.7873L94.2194 37.6251L95.098 40.2199L98.1212 37.7873Z" fill="#B1B1B1"/>
<path d="M94.0405 55.3321C94.1894 55.2731 94.2639 55.1994 94.2639 55.0962C94.2639 55.0372 94.249 54.993 94.2192 54.9488C94.1894 54.9045 94.1298 54.8161 94.0405 54.6981C93.8171 54.418 93.6533 54.1231 93.5341 53.8283C93.415 53.5334 93.3554 53.1943 93.3554 52.8257C93.3405 52.0001 93.5043 51.2924 93.832 50.688C94.1745 50.0835 94.651 49.6264 95.3063 49.3021C95.9467 48.9777 96.7211 48.8156 97.6295 48.8008C98.5677 48.7861 99.3868 48.9335 100.087 49.2579C100.787 49.5822 101.338 50.0245 101.725 50.6142C102.112 51.204 102.321 51.8674 102.321 52.6046C102.321 52.9289 102.291 53.2238 102.231 53.4744C102.172 53.7251 102.082 53.9462 101.978 54.1379C101.874 54.3296 101.74 54.5507 101.561 54.7866C101.487 54.8898 101.442 54.9783 101.442 55.0372C101.442 55.1847 101.695 55.2879 102.187 55.3321V55.6122C101.665 55.5827 100.727 55.5827 99.3868 55.6122V55.3321C99.8186 55.2584 100.176 55.1699 100.459 55.0815C100.742 54.993 100.98 54.8603 101.189 54.6981C101.472 54.4622 101.71 54.1526 101.874 53.7693C102.038 53.386 102.112 53.0027 102.112 52.5898C102.097 52.0591 101.918 51.602 101.561 51.204C101.204 50.8059 100.697 50.511 100.057 50.2899C99.4017 50.0835 98.6571 49.9803 97.7933 49.995C96.8104 50.0098 96.0211 50.1277 95.3957 50.3489C94.7702 50.57 94.3234 50.8944 94.0256 51.3219C93.7277 51.7495 93.5937 52.295 93.6086 52.9584C93.6235 53.445 93.7575 53.8578 94.0107 54.2116C94.1149 54.359 94.2043 54.4475 94.3085 54.4917C94.3979 54.536 94.5319 54.5507 94.6957 54.5507L95.8722 54.536C96.2147 54.536 96.453 54.4917 96.6168 54.4328C96.7658 54.3738 96.8849 54.2558 96.9296 54.0789C96.9891 53.9167 97.0189 53.6514 97.0189 53.2975H97.2572C97.2423 53.6956 97.2274 54.2558 97.2423 55.0077C97.2572 55.568 97.2721 55.9955 97.3019 56.2609H97.0636C97.0487 56.0693 97.004 55.9366 96.9593 55.8629C96.9147 55.7891 96.8104 55.7302 96.6764 55.7007C96.5424 55.6712 96.319 55.6565 96.0062 55.6712L93.5937 55.7154V55.4795C93.7277 55.4206 93.8915 55.3911 94.0405 55.3321Z" fill="#B1B1B1"/>
<path d="M92.269 67.8783C91.8371 67.7456 91.3308 67.6129 90.75 67.495C90.9436 66.979 91.2266 66.1091 91.6286 64.8707C92.1052 63.3963 92.4477 62.2758 92.6562 61.5239L92.8945 61.5976C92.82 61.8778 92.7902 62.0842 92.7902 62.2316C92.8051 62.379 92.8647 62.4822 92.9838 62.5707C93.103 62.6592 93.3115 62.7476 93.5944 62.8361L99.3577 64.6348C99.6556 64.7232 99.8641 64.7675 100.013 64.7675C100.162 64.7675 100.281 64.7085 100.37 64.5905C100.46 64.4726 100.549 64.2809 100.653 64.0155L100.892 64.0893C100.624 64.8412 100.266 65.9469 99.7896 67.4213C99.4322 68.5417 99.179 69.3526 99.0599 69.8392C98.5684 69.6327 98.1217 69.4558 97.7047 69.3379C97.4068 69.2494 97.1537 69.1757 96.975 69.1462L97.0643 68.8808C97.5855 68.984 97.9876 69.0283 98.2557 69.0283C98.5237 69.0283 98.7471 68.9398 98.9258 68.7629C99.1045 68.6007 99.2535 68.3059 99.3875 67.9078L99.6853 66.9495C99.7747 66.6693 99.8194 66.4629 99.8045 66.3303C99.7896 66.1976 99.7449 66.0796 99.6258 65.9911C99.5066 65.9027 99.313 65.8142 99.0152 65.7258L96.275 64.8707L96.0367 65.6373C95.9176 66.0206 95.9474 66.3155 96.141 66.5219C96.3346 66.7283 96.5431 66.8758 96.7813 66.979C97.0196 67.0822 97.1686 67.1559 97.2281 67.1854L97.1388 67.4507C96.7665 67.3033 96.409 67.1706 96.0516 67.0674L95.5006 66.9052C95.1134 66.7873 94.5475 66.6251 93.8327 66.4629L93.922 66.1976C93.9816 66.2123 94.1752 66.2418 94.5028 66.3155C94.8305 66.3745 95.1134 66.345 95.3368 66.227C95.5602 66.1091 95.7091 65.8879 95.8134 65.5783L96.0516 64.8117L93.2519 63.9418C92.9541 63.8534 92.7456 63.8091 92.5966 63.8091C92.4477 63.8091 92.3286 63.8681 92.2541 63.9861C92.1648 64.104 92.0754 64.2957 91.9861 64.5758L91.718 65.4162C91.5691 65.9027 91.5095 66.286 91.5691 66.5661C91.6137 66.861 91.7627 67.0969 92.0158 67.3033C92.269 67.495 92.6562 67.7161 93.1774 67.952L93.0881 68.2174C92.9094 68.0847 92.6264 67.9962 92.269 67.8783Z" fill="#B1B1B1"/>
<path d="M88.0235 85.9687C88.0831 85.836 88.0682 85.7033 88.0086 85.5706C87.9491 85.438 87.8001 85.2758 87.5768 85.0546L83.1984 80.9118C82.9751 80.7054 82.7964 80.5727 82.6623 80.5137C82.5283 80.4547 82.3943 80.4547 82.2602 80.5137C82.1262 80.5727 81.9624 80.7054 81.7539 80.9118L81.5752 80.7496C81.8581 80.4989 82.2156 80.1304 82.6772 79.6733C83.1538 79.172 83.5112 78.7887 83.7346 78.5381L83.9133 78.7003C83.7197 78.9214 83.6005 79.0983 83.541 79.2163C83.4814 79.349 83.4963 79.4817 83.5559 79.6143C83.6154 79.747 83.7644 79.9092 83.9877 80.1304L88.3661 84.2732C88.5894 84.4796 88.7681 84.6123 88.9022 84.6713C89.0362 84.7303 89.1702 84.7303 89.3043 84.6713C89.4383 84.6123 89.6021 84.4796 89.8106 84.2732L89.9893 84.4354C89.7361 84.6566 89.3638 85.0251 88.8873 85.5264C88.4256 85.9982 88.0831 86.3815 87.8448 86.6617L87.6661 86.4995C87.8448 86.2783 87.964 86.1014 88.0235 85.9687Z" fill="#B1B1B1"/>
<path d="M75.6188 94.9617C75.7082 94.829 75.7231 94.6963 75.6933 94.5341C75.6635 94.372 75.5592 94.1655 75.3954 93.8854L71.7021 87.6785L71.9404 87.531L80.3694 91.7034L77.108 86.2189C76.9442 85.9535 76.8102 85.7618 76.6762 85.6586C76.5421 85.5554 76.3932 85.5112 76.2294 85.526C76.0656 85.5407 75.8422 85.6292 75.5592 85.7766L75.4252 85.5702C75.6933 85.4522 76.0507 85.2458 76.5123 84.9805C76.9293 84.7298 77.2421 84.5382 77.4654 84.376L77.5846 84.5824C77.3463 84.7298 77.1825 84.8772 77.108 85.0099C77.0187 85.1426 77.0038 85.2753 77.0336 85.4375C77.0634 85.5997 77.1676 85.8061 77.3314 86.0862L80.3396 91.1432C80.4886 91.4085 80.6226 91.5855 80.7417 91.6739C80.8609 91.7624 80.98 91.8066 81.1289 91.7771C81.263 91.7476 81.4715 91.6739 81.7246 91.5412L81.8438 91.7476C81.6055 91.8656 81.2779 92.0425 80.846 92.2931C80.5332 92.4701 80.2652 92.647 80.0418 92.7944L72.968 89.3002L75.6188 93.7527C75.7826 94.0181 75.9166 94.2098 76.0507 94.313C76.1698 94.4162 76.3187 94.4604 76.4975 94.4457C76.6762 94.4309 76.8995 94.3425 77.1825 94.195L77.3016 94.4014C77.0336 94.5194 76.6762 94.7258 76.2145 94.9912C75.7975 95.2418 75.4848 95.4335 75.2614 95.5956L75.1423 95.3892C75.3656 95.2271 75.5295 95.0796 75.6188 94.9617Z" fill="#B1B1B1"/>
<path d="M67.4286 96.8934C67.5328 97.3504 67.6668 97.8517 67.8455 98.3825C67.1754 98.5004 66.0585 98.7363 64.4799 99.0607C62.9013 99.3998 61.7993 99.6504 61.144 99.8126C61.0696 99.2376 60.9951 98.7363 60.8909 98.2793C60.8015 97.8812 60.727 97.5569 60.6377 97.321L60.9058 97.262C61.0994 97.8665 61.2781 98.294 61.4419 98.5741C61.6057 98.8543 61.8142 99.0312 62.0822 99.1196C62.3503 99.2081 62.7375 99.1934 63.2289 99.0902L63.8693 98.9575L62.4099 92.2493C62.3354 91.9249 62.261 91.689 62.1567 91.5563C62.0525 91.4236 61.9333 91.3352 61.7546 91.3204C61.5759 91.2909 61.3078 91.3204 60.9504 91.3794L60.9058 91.1435C61.3227 91.0845 61.9184 90.9666 62.663 90.8044C63.4523 90.6275 64.048 90.4948 64.4203 90.3916L64.465 90.6275C64.1076 90.716 63.8693 90.8044 63.7204 90.8929C63.5715 90.9813 63.4821 91.114 63.4523 91.2762C63.4225 91.4384 63.4374 91.689 63.5119 92.0134L64.9713 98.7216L65.6117 98.5889C66.1031 98.4857 66.4606 98.3382 66.6691 98.1466C66.8775 97.9549 66.9967 97.7043 67.0265 97.3947C67.0563 97.0851 67.0414 96.6133 66.9669 95.9941L67.235 95.9351C67.2796 96.171 67.3392 96.4953 67.4286 96.8934Z" fill="#B1B1B1"/>
<path d="M47.6663 92.7502C47.7109 92.2932 47.7258 91.7771 47.7258 91.2021C48.2768 91.2759 49.2002 91.3643 50.5107 91.4823C52.0595 91.615 53.2359 91.7182 54.0401 91.7624L54.0252 91.9983C53.7274 91.9835 53.5189 91.9983 53.3849 92.0425C53.2508 92.0867 53.1466 92.1605 53.087 92.2932C53.0275 92.4258 52.9828 92.647 52.953 92.9419L52.4169 98.9129C52.3871 99.2078 52.402 99.4289 52.4318 99.5764C52.4616 99.7238 52.5509 99.827 52.6849 99.886C52.819 99.9449 53.0275 100.004 53.3104 100.033L53.2955 100.269C52.5062 100.181 51.3297 100.063 49.7809 99.9302C48.5896 99.827 47.7407 99.768 47.2344 99.7385C47.3386 99.2225 47.4131 98.7507 47.4429 98.3232C47.4726 98.0136 47.4875 97.7629 47.4727 97.5713L47.7556 97.6007C47.7705 98.1315 47.8003 98.5148 47.8747 98.7802C47.9343 99.0456 48.0683 99.2373 48.2768 99.3699C48.4704 99.5026 48.7981 99.5911 49.215 99.6206L50.2277 99.709C50.5256 99.7385 50.734 99.7238 50.8681 99.6943C51.0021 99.6648 51.1064 99.5763 51.1659 99.4437C51.2255 99.311 51.2702 99.0898 51.3 98.795L51.5531 95.9642L50.7489 95.8905C50.3469 95.861 50.0639 95.9495 49.9001 96.1854C49.7512 96.4213 49.632 96.6572 49.5874 96.9078C49.5278 97.1585 49.498 97.3206 49.4831 97.3943L49.2002 97.3649C49.2597 96.9668 49.3044 96.5982 49.3491 96.2296L49.3938 95.6546C49.4235 95.2418 49.4533 94.6816 49.4831 93.9444L49.7661 93.9739C49.7661 94.0329 49.7809 94.2245 49.7809 94.5636C49.7958 94.9027 49.8703 95.1681 50.049 95.345C50.2128 95.5367 50.466 95.6399 50.7936 95.6694L51.5978 95.7431L51.851 92.8534C51.8808 92.5585 51.8659 92.3374 51.8361 92.1899C51.8063 92.0573 51.7169 91.9541 51.5829 91.8951C51.4489 91.8361 51.2404 91.7919 50.9574 91.7624L50.0639 91.6887C49.5576 91.6444 49.1704 91.6739 48.8874 91.7919C48.6194 91.8951 48.4109 92.1015 48.2619 92.3816C48.113 92.6617 47.9939 93.0893 47.8747 93.6495L47.5918 93.6201C47.5918 93.3989 47.6216 93.104 47.6663 92.7502Z" fill="#B1B1B1"/>
<path d="M35.9463 87.2805C36.1697 87.2363 36.4229 87.2805 36.6909 87.3984C37.0037 87.5311 37.2122 87.7228 37.3313 87.9734C37.4504 88.2388 37.4653 88.6074 37.3909 89.0939L37.1675 90.3029C37.093 90.7304 37.0483 91.0548 37.0335 91.3054C37.0186 91.5413 37.0781 91.7625 37.1824 91.9541C37.2866 92.1458 37.4802 92.2932 37.7632 92.4112L38.8354 92.8535L39.9226 90.2881C40.0417 90.008 40.1013 89.8016 40.1162 89.6542C40.131 89.5067 40.0715 89.3888 39.9672 89.2856C39.863 89.1824 39.6843 89.0792 39.4162 88.9612L39.5056 88.7401C39.8481 88.9023 40.3097 89.1087 40.9203 89.3593C41.5607 89.6247 42.0521 89.8163 42.3798 89.9196L42.2904 90.1407C42.0075 90.0375 41.799 89.9933 41.6649 89.9785C41.516 89.9785 41.3969 90.0228 41.3075 90.1407C41.2033 90.2439 41.099 90.4356 40.9799 90.7157L38.6418 96.2444C38.5227 96.5246 38.4631 96.731 38.4482 96.8784C38.4333 97.0258 38.4929 97.1438 38.5971 97.247C38.7014 97.3502 38.8801 97.4534 39.1482 97.5861L39.0588 97.8072C38.7461 97.6598 38.2993 97.4534 37.7036 97.2027C37.4058 97.0848 37.093 96.9521 36.7356 96.8047C36.3782 96.6573 36.1399 96.5688 36.0059 96.5098C35.4251 96.2592 34.9634 95.9791 34.6209 95.64C34.2784 95.3009 34.0848 94.947 33.9954 94.5637C33.9061 94.1804 33.9508 93.8118 34.1146 93.4432C34.2337 93.1483 34.4273 92.883 34.6954 92.6471C34.9634 92.4112 35.306 92.2343 35.7229 92.1458C36.1399 92.0573 36.6463 92.0721 37.1973 92.2048L37.0632 92.131C36.7505 91.9394 36.5122 91.7477 36.3633 91.5413C36.2144 91.3497 36.1101 91.1285 36.0804 90.8926C36.0357 90.6567 36.0506 90.3618 36.1101 90.008L36.3186 88.7548C36.3633 88.5042 36.3931 88.3125 36.3931 88.1651C36.3931 88.0177 36.3782 87.8997 36.3335 87.8113C36.2888 87.7228 36.2144 87.6491 36.1101 87.6196C35.991 87.5606 35.8719 87.5606 35.7676 87.5901C35.6634 87.6196 35.5144 87.6933 35.3208 87.7965L35.2017 87.6048C35.4698 87.4427 35.7229 87.3247 35.9463 87.2805ZM36.6909 92.5291C36.3335 92.5733 36.0506 92.706 35.8272 92.9272C35.6038 93.1483 35.4102 93.4432 35.2464 93.8265C34.9932 94.431 34.9337 94.9618 35.0975 95.3893C35.2613 95.8169 35.6634 96.1707 36.3335 96.4508C36.5718 96.554 36.7505 96.5983 36.8994 96.5835C37.0335 96.5835 37.1526 96.5246 37.2568 96.4066C37.3611 96.2887 37.4653 96.097 37.5696 95.8316L38.7312 93.0894L37.9717 92.7798C37.4802 92.5733 37.0483 92.4849 36.6909 92.5291Z" fill="#B1B1B1"/>
<path d="M24.3301 89.2858C24.4641 89.3301 24.5981 89.3006 24.7173 89.2268C24.8364 89.1531 25.0002 88.991 25.1938 88.7551L28.9318 84.0372C29.1254 83.8013 29.2445 83.6096 29.2892 83.4769C29.3339 83.3443 29.319 83.2116 29.2445 83.0936C29.17 82.9757 29.0211 82.8135 28.7977 82.6218L28.9467 82.4302C29.2296 82.6808 29.6168 83.0052 30.138 83.4032C30.689 83.8308 31.106 84.1404 31.389 84.3321L31.2401 84.5237C31.0018 84.3468 30.8082 84.2436 30.6742 84.2141C30.5401 84.1699 30.4061 84.1846 30.287 84.2731C30.1678 84.3468 30.004 84.509 29.8104 84.7449L26.0725 89.4627C25.8789 89.6986 25.7597 89.8903 25.715 90.023C25.6704 90.1557 25.6853 90.2884 25.7597 90.4063C25.8342 90.5243 25.9831 90.6864 26.2065 90.8781L26.0576 91.0698C25.8044 90.8486 25.4023 90.5243 24.8513 90.082C24.3301 89.6839 23.9131 89.3743 23.6152 89.1679L23.7642 88.9762C24.0173 89.1384 24.196 89.2416 24.3301 89.2858Z" fill="#B1B1B1"/>
<path d="M14.7101 78.7886C14.6505 78.1251 14.7994 77.4617 15.142 76.8277C15.4994 76.179 16.0355 75.604 16.7801 75.0585C17.5098 74.5425 18.2395 74.2034 18.999 74.0707C19.7585 73.938 20.4585 73.9822 21.1137 74.2329C21.769 74.4835 22.32 74.9111 22.7519 75.5156C23.2135 76.1348 23.4667 76.7835 23.5263 77.4469C23.5858 78.1104 23.4369 78.7738 23.0944 79.4078C22.737 80.0565 22.2009 80.6315 21.4563 81.177C20.7265 81.693 19.9968 82.0321 19.2373 82.1648C18.4927 82.2975 17.7779 82.2532 17.1226 82.0026C16.4674 81.752 15.9163 81.3244 15.4845 80.7347C15.0228 80.1007 14.7696 79.452 14.7101 78.7886ZM16.9439 81.4129C17.4651 81.5161 18.0608 81.4719 18.7161 81.2654C19.3713 81.059 20.0266 80.7199 20.7116 80.2187C21.3967 79.7321 21.9328 79.2014 22.3051 78.6411C22.6923 78.0809 22.9008 77.5206 22.9306 76.9899C22.9753 76.4591 22.8412 75.9873 22.5583 75.5893C22.2455 75.1765 21.8435 74.9111 21.3073 74.8079C20.7861 74.7047 20.1904 74.7489 19.5352 74.9553C18.8799 75.1617 18.2246 75.5008 17.5396 75.9873C16.8546 76.4739 16.3184 77.0046 15.9461 77.5796C15.5589 78.1399 15.3504 78.6854 15.3058 79.2309C15.2611 79.7616 15.3951 80.2334 15.6781 80.6315C15.9908 81.0443 16.4078 81.3097 16.9439 81.4129Z" fill="#B1B1B1"/>
<path d="M15.856 61.0374C16.0347 61.1701 16.1687 61.3913 16.258 61.6861C16.3623 61.9957 16.3474 62.2906 16.2283 62.5412C16.1091 62.8066 15.8262 63.0573 15.3943 63.3079L14.3072 63.9124C13.9349 64.1335 13.6519 64.3105 13.4583 64.4579C13.2647 64.6053 13.1307 64.7822 13.0562 64.9886C12.9818 65.1951 12.9818 65.4309 13.0711 65.7258L13.4136 66.8316L16.0942 66.0059C16.3921 65.9175 16.5857 65.829 16.7048 65.7406C16.8239 65.6521 16.8835 65.5341 16.8984 65.4015C16.9133 65.2688 16.8686 65.0476 16.7942 64.7675L17.0324 64.6938C17.1218 65.0476 17.2558 65.5489 17.4643 66.1681C17.6728 66.8316 17.8366 67.3181 17.9558 67.6277L17.7175 67.7014C17.6132 67.4213 17.5239 67.2296 17.4345 67.1264C17.3452 67.0232 17.226 66.9495 17.0771 66.9495C16.9282 66.9495 16.7048 66.979 16.4219 67.0822L10.6437 68.8514C10.3458 68.9399 10.1522 69.0283 10.0331 69.1168C9.91395 69.2052 9.85438 69.3232 9.83949 69.4559C9.8246 69.6033 9.86927 69.8097 9.94374 70.0898L9.70546 70.1635C9.631 69.8392 9.49697 69.3674 9.30337 68.7482C9.21401 68.4533 9.09488 68.1142 8.97574 67.7604C8.8566 67.4065 8.76725 67.1559 8.72257 67.0232C8.52897 66.4187 8.4694 65.888 8.51408 65.4162C8.55876 64.9444 8.70768 64.5611 8.94595 64.2515C9.18423 63.9419 9.49697 63.7355 9.88417 63.6175C10.182 63.5291 10.5096 63.4996 10.8671 63.5438C11.2245 63.588 11.567 63.7355 11.9244 64.0008C12.2818 64.2662 12.5797 64.6495 12.8328 65.1656L12.8179 65.0181C12.7733 64.6495 12.7584 64.3547 12.8179 64.104C12.8775 63.8534 12.9818 63.647 13.1307 63.4701C13.2945 63.2932 13.5328 63.1015 13.8455 62.9246L14.9475 62.2759C15.1709 62.1579 15.3496 62.04 15.4539 61.9515C15.5581 61.8631 15.6475 61.7746 15.6921 61.6861C15.7368 61.5977 15.7368 61.4945 15.707 61.3913C15.6624 61.2586 15.6028 61.1701 15.5134 61.1112C15.4241 61.0522 15.2752 60.9785 15.0667 60.9047L15.1411 60.6836C15.439 60.7868 15.6921 60.9047 15.856 61.0374ZM12.2967 64.9886C12.0435 64.7528 11.7457 64.6201 11.433 64.5906C11.1202 64.5611 10.7628 64.6053 10.3607 64.738C9.72035 64.9297 9.28848 65.2393 9.0502 65.6373C8.81192 66.0354 8.81192 66.5809 9.02042 67.2444C9.09488 67.4803 9.18423 67.6572 9.27358 67.7604C9.36294 67.8636 9.49697 67.9226 9.64589 67.9226C9.79481 67.9226 10.0182 67.8783 10.2863 67.8046L13.1456 66.92L12.9073 66.1386C12.7584 65.6079 12.5499 65.2245 12.2967 64.9886Z" fill="#B1B1B1"/>
<path d="M14.7095 47.046C15.2754 46.7954 15.6179 46.3236 15.7668 45.6159C15.8115 45.3505 15.8115 45.0851 15.737 44.8345C15.6626 44.5839 15.5285 44.3627 15.32 44.1711C15.1115 43.9794 14.8286 43.8467 14.4563 43.7877C14.1436 43.7288 13.8606 43.7582 13.5925 43.8614C13.3245 43.9646 13.0564 44.1268 12.8033 44.348C12.5501 44.5691 12.2522 44.864 11.9246 45.2326C11.5523 45.6454 11.2247 45.9845 10.9417 46.2204C10.6588 46.471 10.346 46.6479 10.0035 46.7806C9.66099 46.9133 9.27379 46.9281 8.84192 46.8543C8.39515 46.7659 8.02284 46.6037 7.75478 46.3383C7.48672 46.0729 7.29312 45.7633 7.20377 45.3947C7.11442 45.0262 7.11442 44.6428 7.18888 44.23C7.23355 43.9794 7.29312 43.7877 7.36758 43.6108C7.44205 43.4339 7.51651 43.3012 7.60586 43.198C7.69521 43.0948 7.78457 42.9768 7.9037 42.8589C8.05263 42.6967 8.12709 42.5788 8.15687 42.4903C8.17176 42.4166 8.14198 42.3576 8.06752 42.2987C7.99306 42.2397 7.85903 42.1954 7.68032 42.1365L7.725 41.8711C8.18666 41.989 8.99084 42.166 10.1673 42.3871L10.1226 42.6525C9.70567 42.6083 9.31847 42.623 8.93127 42.7115C8.55896 42.7852 8.23133 42.9474 7.96327 43.198C7.69521 43.4339 7.51651 43.773 7.44205 44.1858C7.38248 44.4659 7.39737 44.7166 7.47183 44.9672C7.54629 45.2178 7.68032 45.4095 7.85903 45.5717C8.05263 45.7338 8.27601 45.837 8.54407 45.896C8.97595 45.9697 9.34825 45.9108 9.66099 45.7044C9.97373 45.498 10.2716 45.2326 10.5545 44.923C10.8375 44.6134 11.0162 44.4069 11.1204 44.3037C11.5374 43.8614 11.8799 43.5223 12.1629 43.2717C12.4458 43.0211 12.7586 42.8442 13.1011 42.7262C13.4436 42.6083 13.8159 42.5935 14.218 42.6672C14.7095 42.7557 15.1115 42.9474 15.4094 43.2275C15.7072 43.5223 15.9008 43.8614 16.0051 44.2743C16.1093 44.6871 16.1093 45.1294 16.02 45.6012C15.9455 45.9845 15.8562 46.2793 15.7221 46.5152C15.603 46.7511 15.4392 46.9575 15.2605 47.1492C15.1115 47.3114 15.0371 47.4293 15.0073 47.5178C14.9924 47.5915 15.0222 47.6505 15.0967 47.7094C15.1711 47.7684 15.3051 47.8274 15.4839 47.8716L15.4392 48.137C15.0073 48.0191 14.0542 47.8274 12.5799 47.562L12.6245 47.2966C13.4585 47.3704 14.1436 47.2966 14.7095 47.046Z" fill="#B1B1B1"/>
<path d="M11.7607 34.6176C11.3437 34.3964 10.8672 34.19 10.3311 33.9836C10.6587 33.4086 11.2097 32.4061 11.9543 30.976C12.6989 29.5606 13.2201 28.5581 13.5031 27.9536C13.9945 28.2632 14.4413 28.5286 14.8434 28.735C15.2008 28.9267 15.5136 29.0594 15.7518 29.1626L15.6178 29.4132C15.0221 29.1773 14.5753 29.0299 14.2626 28.9856C13.9499 28.9267 13.6669 28.9856 13.4286 29.1331C13.1904 29.2805 12.9521 29.5754 12.7287 30.0177L12.4309 30.6074L18.5814 33.7772C18.8792 33.9394 19.1175 34.0131 19.2813 34.0279C19.4451 34.0426 19.594 33.9984 19.7281 33.8804C19.8621 33.7625 20.011 33.5413 20.1897 33.2317L20.4131 33.3497C20.1897 33.7183 19.9068 34.2343 19.5494 34.9125C19.177 35.6201 18.909 36.1656 18.7452 36.5047L18.5218 36.3868C18.6707 36.0624 18.775 35.8118 18.7898 35.6496C18.8196 35.4727 18.775 35.3253 18.6558 35.1926C18.5367 35.0599 18.3431 34.9272 18.0452 34.765L11.8947 31.5805L11.582 32.1555C11.3437 32.5978 11.2395 32.9516 11.2544 33.2317C11.2693 33.5118 11.3884 33.7625 11.6118 33.9836C11.8352 34.2048 12.2075 34.4996 12.7436 34.8387L12.6096 35.0894C12.416 34.9714 12.1181 34.8093 11.7607 34.6176Z" fill="#B1B1B1"/>
<path d="M22.275 17.6776C22.5282 17.427 22.7367 17.1911 22.8856 17.0142L23.0643 17.1911C22.975 17.3238 22.9303 17.5154 22.9452 17.7366C22.9601 17.9577 23.0197 18.2673 23.1388 18.6359L24.494 22.6314L26.0726 24.1794C26.296 24.3858 26.4598 24.5333 26.5938 24.5922C26.7278 24.6512 26.8619 24.6512 26.9959 24.5922C27.1299 24.5333 27.2937 24.4006 27.5171 24.2089L27.6958 24.3858C27.4129 24.6365 27.0406 24.9903 26.5789 25.4473C26.0875 25.9339 25.73 26.3172 25.5067 26.5678L25.328 26.3909C25.5216 26.1698 25.6556 26.0076 25.7152 25.8749C25.7747 25.7422 25.7747 25.6095 25.7003 25.4768C25.6407 25.3441 25.4918 25.1672 25.2833 24.9608L23.9728 23.6781L18.9988 22.2333C18.7009 22.1448 18.4775 22.1153 18.3286 22.1301C18.1797 22.1448 18.0754 22.1891 18.001 22.2628L17.8223 22.0859C18.0605 21.8795 18.3286 21.6436 18.5967 21.3634C19.1477 20.8032 19.5498 20.4051 19.7731 20.1397L19.9519 20.3167C19.5498 20.7147 19.4604 21.0243 19.6838 21.2455C19.7731 21.334 19.8923 21.3929 20.071 21.4519L24.2557 22.7346L23.1537 19.4763C22.9899 19.0045 22.8261 18.6802 22.6474 18.518C22.4835 18.3558 22.3048 18.3116 22.1112 18.3705C21.9176 18.4295 21.6942 18.577 21.4262 18.8276L21.2475 18.6507C21.6049 18.3263 21.9325 18.002 22.275 17.6776Z" fill="#B1B1B1"/>
<path d="M31.2851 11.7362C31.1958 11.8394 31.1511 11.9721 31.1809 12.1195C31.2106 12.267 31.2851 12.4734 31.434 12.7388L34.3082 18.0169C34.4572 18.2823 34.5763 18.4592 34.6954 18.5624C34.7997 18.6656 34.9337 18.6951 35.0677 18.6803C35.2018 18.6656 35.4103 18.5771 35.6634 18.4444L36.4527 18.0169C36.8995 17.781 37.2122 17.5303 37.376 17.2797C37.5398 17.0291 37.5994 16.7489 37.5547 16.4098C37.5101 16.0708 37.376 15.6432 37.1378 15.0829L37.3909 14.9503C37.4952 15.1862 37.6441 15.481 37.8377 15.8349C38.0611 16.2329 38.3291 16.6752 38.6568 17.1618C38.1653 17.3977 37.3314 17.8252 36.1847 18.4444C34.8146 19.1816 33.7721 19.7418 33.0871 20.1399L32.9679 19.9335C33.2211 19.7861 33.3998 19.6534 33.4892 19.5502C33.5785 19.447 33.6232 19.3143 33.5934 19.1668C33.5636 19.0194 33.4892 18.813 33.3402 18.5476L30.4362 13.2695C30.2873 13.0041 30.1682 12.8272 30.049 12.724C29.9448 12.6208 29.8108 12.5913 29.6767 12.6061C29.5278 12.6208 29.3342 12.6945 29.0662 12.8272L28.9619 12.6061C29.2747 12.4734 29.7363 12.2375 30.3469 11.8984C30.9277 11.5888 31.3745 11.3381 31.6872 11.1465L31.8063 11.3529C31.5532 11.5003 31.3894 11.633 31.2851 11.7362Z" fill="#B1B1B1"/>
<path d="M49.4234 12.6797C49.5128 13.122 49.6468 13.6232 49.8106 14.1835C49.2596 14.2719 48.3512 14.4341 47.0704 14.6848C45.5365 14.9796 44.3898 15.2155 43.6005 15.3924L43.5559 15.1565C43.8388 15.0828 44.0473 15.0239 44.1665 14.9354C44.2856 14.8617 44.3601 14.7437 44.3749 14.611C44.3898 14.4636 44.3749 14.2425 44.3154 13.9476L43.1538 8.06501C43.0942 7.77015 43.0346 7.56374 42.9453 7.43105C42.8559 7.29836 42.7666 7.22464 42.6177 7.2099C42.4836 7.18041 42.2602 7.19516 41.9773 7.23939L41.9326 7.00349C42.7219 6.8708 43.8835 6.6644 45.4025 6.36953C46.579 6.13364 47.413 5.97146 47.8895 5.85352C47.9342 6.38428 48.0086 6.85606 48.0831 7.26887C48.1427 7.57848 48.2023 7.81438 48.2618 7.9913L47.9938 8.05027C47.8299 7.549 47.681 7.18041 47.547 6.94452C47.413 6.70863 47.2194 6.56119 46.996 6.48748C46.7577 6.41376 46.445 6.41376 46.0131 6.50222L45.0153 6.69388C44.7324 6.75286 44.5239 6.81183 44.4047 6.88555C44.2856 6.95926 44.2111 7.06247 44.1813 7.2099C44.1665 7.35733 44.1813 7.57848 44.2409 7.87335L44.7919 10.6746L45.5812 10.5124C45.9833 10.4387 46.2216 10.2618 46.3109 9.99639C46.4003 9.73101 46.4301 9.48037 46.4152 9.22974C46.4003 8.9791 46.3854 8.81692 46.3854 8.74321L46.6535 8.68423C46.6981 9.0823 46.7577 9.45089 46.8322 9.80472L46.9513 10.365C47.0258 10.763 47.1598 11.3233 47.3534 12.031L47.0853 12.0899C47.0704 12.031 47.0109 11.854 46.9066 11.5297C46.8024 11.2053 46.6535 10.9842 46.4301 10.8515C46.2067 10.7188 45.9535 10.6893 45.6259 10.7483L44.8366 10.8957L45.4025 13.7412C45.4621 14.0361 45.5216 14.2425 45.5961 14.3752C45.6706 14.4931 45.7748 14.5668 45.9237 14.5963C46.0578 14.611 46.2812 14.5963 46.5641 14.5373L47.4427 14.3604C47.9342 14.2572 48.3065 14.1245 48.5448 13.9476C48.783 13.7707 48.9171 13.52 48.9766 13.2104C49.0362 12.9008 49.0362 12.4585 48.9915 11.8835L49.2596 11.8246C49.3043 12.0457 49.349 12.3258 49.4234 12.6797Z" fill="#B1B1B1"/>
<path d="M39.3858 68.9841C38.7007 68.07 38.105 67.0674 37.5838 65.9617C37.0626 64.8559 36.6456 63.7354 36.3329 62.5855C35.6478 57.5285 35.6329 52.619 36.2733 47.8569C36.9137 43.0948 37.9561 38.4064 39.3858 33.777C39.6241 33.261 40.1453 33.0104 40.9495 33.0104C41.7536 33.0104 42.5429 33.1873 43.3471 33.5411C44.1513 33.895 44.8066 34.3667 45.3278 34.9565C45.849 35.5462 45.9682 36.1654 45.6852 36.7994C45.2384 37.743 44.8066 39.0256 44.3747 40.6179C43.9428 42.2249 43.5109 43.9941 43.1237 45.9255C42.7216 47.8569 42.3791 49.8915 42.0813 51.9998C41.7834 54.108 41.56 56.1426 41.426 58.074C41.292 60.0054 41.2622 61.7598 41.3367 63.3226C41.4111 64.8854 41.6494 66.1238 42.0515 67.0232C43.9279 64.5316 45.6405 61.9515 47.2042 59.2829C48.7679 56.6144 50.2273 53.9164 51.5974 51.1594C52.9675 48.4171 54.278 45.6454 55.5141 42.8294C56.7501 40.0282 57.9713 37.2564 59.1627 34.5289C59.7584 33.143 60.3541 31.6835 60.9349 30.1502C61.5156 28.6021 62.2752 27.29 63.2431 26.1842C63.6452 25.8304 63.958 25.7124 64.1665 25.8304C64.3898 25.9483 64.5388 26.1695 64.6132 26.5086C64.6877 26.8477 64.7324 27.2015 64.7324 27.5701C64.7324 27.9387 64.7324 28.2335 64.7324 28.4252C64.4494 30.2386 64.2111 32.0373 64.0175 33.8212C63.8239 35.6052 63.3921 37.3154 62.7666 38.9814C61.7241 41.591 60.6668 44.171 59.5648 46.7511C58.4627 49.3165 57.2862 51.8523 56.0353 54.3439C54.7844 56.8356 53.4143 59.2535 51.9697 61.5976C50.5103 63.9566 48.9317 66.1976 47.2042 68.3206C45.849 70.0161 44.4938 70.9154 43.1684 71.0186C41.7834 71.1366 40.5474 70.4436 39.3858 68.9841Z" fill="#B1B1B1" stroke="white" stroke-miterlimit="10"/>
<path d="M64.0475 62.2909C63.2434 61.1852 62.4541 60.0647 61.6797 58.9147C60.9053 57.7647 60.5181 56.5115 60.5181 55.1257C60.5181 53.5924 60.9648 52.1328 61.8584 50.7616C62.7519 49.4053 63.7795 48.2995 64.9411 47.4739C65.4176 47.1643 65.9091 46.8989 66.4005 46.7072C66.8919 46.5156 67.4281 46.5303 67.994 46.7662C68.2322 46.8842 68.4854 46.9726 68.7386 47.0316C68.9918 47.0906 69.23 47.1643 69.4236 47.238C69.6172 47.3117 69.8406 47.4297 70.0789 47.5918C70.3172 47.754 70.4363 47.9604 70.4363 48.2405C70.4363 49.3463 70.4661 50.2456 70.5257 50.9386C70.5852 51.6315 70.6746 52.2212 70.7937 52.7225C70.9129 53.2238 71.032 53.6513 71.1511 54.0199C71.2703 54.4032 71.3894 54.8013 71.5085 55.2289C71.583 55.6269 71.5681 55.966 71.449 56.2314C71.3298 56.5115 71.032 56.541 70.5554 56.3494C69.6768 56.0398 69.0215 55.4058 68.6046 54.4475C68.1876 53.4892 67.8748 52.634 67.6812 51.8379C67.6366 51.6757 67.5472 51.4104 67.3834 51.0123C67.2196 50.6142 67.1302 50.3341 67.0856 50.1867C66.7728 50.1129 66.3856 50.2161 65.9537 50.511C65.5219 50.8059 65.1198 51.2187 64.7921 51.72C64.4496 52.236 64.2262 52.8257 64.1369 53.5039C64.0326 54.1821 64.1667 54.8455 64.5241 55.5237C64.6879 55.7596 64.9113 56.0545 65.2091 56.3789C65.507 56.718 65.8048 57.057 66.1027 57.4109C66.4005 57.7647 66.6983 58.1186 66.9962 58.4429C67.294 58.7673 67.5472 59.0474 67.7408 59.2391C67.9791 59.4749 68.1429 59.6076 68.2174 59.6224C68.2918 59.6371 68.5003 59.5929 68.813 59.4749C69.2151 59.2833 69.8257 59.0179 70.6448 58.7083C71.4639 58.3987 72.3276 58.0743 73.2212 57.7647C74.1147 57.4551 74.9784 57.1897 75.7975 56.9686C76.6166 56.7474 77.2421 56.6442 77.6888 56.6442C77.9718 56.6442 78.1654 56.7474 78.2845 56.9391C78.4036 57.057 78.3888 57.2192 78.2249 57.4109C78.0611 57.6025 77.8526 57.809 77.5995 58.0006C77.3463 58.1923 77.0633 58.3692 76.7953 58.5314C76.5123 58.6936 76.3336 58.782 76.2592 58.8262C75.5741 59.2243 74.7253 59.6666 73.6828 60.1679C72.6404 60.6544 71.7468 61.1409 70.9873 61.6127C70.9129 61.6864 70.7639 61.7749 70.5405 61.8486C70.3172 61.9223 70.1534 62.0108 70.0342 62.0845C70.5108 63.146 70.8533 64.0749 71.0469 64.8415C71.2405 65.6082 71.3149 66.3453 71.2554 67.0678C71.1958 67.7754 71.0469 68.4979 70.8086 69.235C70.5703 69.9722 70.2427 70.8126 69.8555 71.7561C69.2896 72.6702 68.7237 73.5401 68.1429 74.3657C67.5621 75.1913 66.9217 75.9432 66.192 76.6214C65.4772 77.2996 64.6879 77.8304 63.8539 78.2137C63.02 78.6118 62.0966 78.8034 61.0989 78.8034C60.533 78.8034 59.9968 78.7297 59.4756 78.597C58.9544 78.4643 58.5225 78.1695 58.1651 77.7419C57.2418 76.7541 56.7354 75.6779 56.6163 74.5131C56.4972 73.3484 56.6014 72.1984 56.9141 71.0485C57.1524 70.3408 57.4503 69.6921 57.8077 69.0876C58.6863 67.5838 59.6543 66.3158 60.7117 65.2691C61.7839 64.237 62.8859 63.2345 64.0475 62.2909ZM66.0878 64.9595C65.641 65.4018 65.0453 66.021 64.2858 66.8319C63.5263 67.6427 62.8264 68.5273 62.1562 69.4709C61.501 70.4145 60.9648 71.3581 60.5479 72.2869C60.1309 73.2157 60.0266 74.0119 60.2202 74.6901C61.0244 74.3362 61.8435 73.7465 62.6774 72.9356C63.5114 72.1247 64.256 71.2401 64.8964 70.2671C65.5368 69.294 65.9835 68.3357 66.2367 67.3921C66.4899 66.4338 66.4452 65.6229 66.0878 64.9595Z" fill="#B1B1B1" stroke="white" stroke-miterlimit="10"/>
<path d="M54.3374 86.2924C35.7072 86.2924 20.5469 71.2837 20.5469 52.8398C20.5469 34.3959 35.7072 19.3872 54.3374 19.3872C72.9676 19.3872 88.1279 34.3959 88.1279 52.8398C88.1279 71.2837 72.9676 86.2924 54.3374 86.2924ZM54.3374 20.8615C36.5262 20.8615 22.0361 35.2068 22.0361 52.8398C22.0361 70.4728 36.5262 84.8181 54.3374 84.8181C72.1485 84.8181 86.6386 70.4728 86.6386 52.8398C86.6386 35.2068 72.1485 20.8615 54.3374 20.8615Z" fill="#B1B1B1"/>
</g>
</svg>
