<svg width="152" height="46" viewBox="0 0 152 46" fill="none" xmlns="http://www.w3.org/2000/svg">
<path d="M21.278 9.2037L22.3949 8.96781C22.6778 8.96781 22.9161 9.02678 23.0799 9.14473C23.2437 9.26268 23.3331 9.38062 23.3331 9.48383C23.3331 9.58703 23.3033 9.7492 23.2586 9.94087C23.214 10.1325 22.797 12.1081 22.0226 15.8382C21.2482 19.5683 20.6823 22.3547 20.3249 24.1829C22.0524 21.8535 24.0777 18.9933 26.386 15.5876C28.6943 12.1819 30.0495 9.92612 30.4367 8.80563C30.5558 8.45179 30.7196 8.18641 30.9132 7.99475C31.1068 7.80309 31.2856 7.68514 31.4345 7.65565C31.5834 7.62617 31.8217 7.59668 32.1344 7.59668C32.4472 7.59668 32.8195 7.6704 33.2513 7.80309C33.6832 7.93578 33.9066 8.15693 33.9066 8.48128C33.9066 9.07101 33.013 10.796 31.2409 13.6267C29.4687 16.4574 27.4285 19.465 25.1351 22.6496C22.8417 25.8342 20.9354 28.3553 19.4015 30.2129C19.1335 30.5373 18.791 30.7142 18.4038 30.7142C18.0166 30.7142 17.5996 30.6405 17.1677 30.5078C16.7358 30.3751 16.5124 30.1392 16.5124 29.7854C16.5124 28.6796 17.4953 23.3425 19.4611 13.8036C17.7783 15.9561 15.738 18.9638 13.3404 22.8118C10.8385 26.7925 9.42375 29.2694 9.09612 30.2129C8.91741 30.7879 8.70892 31.127 8.47065 31.2155C8.30683 31.2892 8.12812 31.3187 7.94941 31.3187L6.74314 31.4514C6.50487 31.4514 6.29637 31.3924 6.08788 31.2597C5.89428 31.127 5.79004 30.9943 5.79004 30.8469C5.79004 30.4488 6.35595 29.2399 7.47287 27.2348C8.58979 25.2297 9.91519 23.0477 11.4193 20.6887C12.9234 18.3298 14.4871 16.0446 16.1253 13.8184C17.7634 11.5921 19.0292 10.0883 19.9228 9.33639C20.1015 9.17422 20.31 9.1005 20.5483 9.1005L21.278 9.2037Z" fill="#B1B1B1"/>
<path d="M39.1779 19.1998C39.9523 19.1998 40.3395 19.4652 40.3395 19.9812C40.3395 20.2613 40.28 20.4677 40.1459 20.6004C40.0119 20.7331 39.729 21.1606 39.2971 21.9126C38.8652 22.6497 38.3886 23.5933 37.8674 24.758C37.3462 25.908 37.0037 26.8958 36.8548 27.7067C36.825 27.8099 36.8101 27.9426 36.8101 28.1342C36.8101 28.6945 36.959 28.9599 37.2717 28.9599C37.5845 28.9599 37.9419 28.8124 38.3589 28.5323C38.7759 28.2374 39.1482 27.9426 39.4758 27.6035C39.8034 27.2791 40.1162 26.94 40.4289 26.6009C40.7416 26.2618 40.9203 26.0554 40.9799 26.0112C41.0395 25.967 41.1288 25.9375 41.248 25.9375C41.4416 25.9375 41.5607 26.0849 41.6054 26.3798C41.6501 26.6747 41.6649 26.9695 41.6649 27.2939C41.6649 27.6182 41.6352 27.8246 41.5756 27.9426C41.2778 28.5176 40.6374 29.2105 39.6247 30.0214C38.6269 30.8323 37.7036 31.2303 36.8846 31.2303C36.0655 31.2303 35.4549 30.9797 35.0826 30.4932C34.7103 30.0066 34.5018 29.4464 34.5018 28.8567C34.5018 28.2522 34.606 27.7362 34.8145 27.2791C33.9657 28.3701 32.9977 29.2842 31.9105 30.0509C30.8085 30.8028 29.9299 31.1861 29.2299 31.1861C28.53 31.1861 27.979 30.9797 27.5322 30.5669C26.9663 30.0509 26.6982 29.3432 26.6982 28.4291C26.6982 27.515 26.9067 26.6009 27.3237 25.6721C27.7407 24.758 28.2768 23.9029 28.947 23.151C29.6171 22.3843 30.3617 21.6914 31.1659 21.0722C32.8487 19.76 34.4124 19.1113 35.8421 19.1113C36.3931 19.1113 36.8399 19.1998 37.1824 19.3767C37.5249 19.5536 37.7483 19.7895 37.8377 20.0549C38.0759 19.6863 38.2844 19.4652 38.4631 19.362C38.5972 19.244 38.8503 19.1998 39.1779 19.1998ZM37.1526 20.8805C35.4102 20.8805 33.6082 21.8388 31.7467 23.7555C31.0915 24.4484 30.4809 25.2593 29.915 26.2176C29.3491 27.1759 29.081 27.8246 29.081 28.1785C29.081 28.5323 29.1853 28.7092 29.3938 28.7092C29.6767 28.7092 30.466 28.149 31.7765 27.0432C33.087 25.9375 33.9508 25.1119 34.3678 24.5811C34.8443 23.9914 35.7676 22.7529 37.1526 20.8805Z" fill="#B1B1B1"/>
<path d="M50.7649 11.2085L51.3904 11.3559C51.4797 11.3559 51.5691 11.4002 51.6286 11.4886C51.7031 11.5771 51.7329 11.6655 51.7329 11.7393C51.7329 11.813 51.6286 12.0341 51.4053 12.388C51.1819 12.7418 50.9436 13.1399 50.6457 13.5822C50.3479 14.0245 50.199 14.2751 50.1841 14.3193C50.9734 14.2604 51.5393 14.2309 51.8669 14.2309C52.1945 14.2309 52.4179 14.2604 52.5519 14.3046C52.6711 14.3488 52.82 14.4815 52.9689 14.6879C53.1327 14.8943 53.2668 15.0565 53.4008 15.1597C53.5348 15.2629 53.5944 15.4251 53.5944 15.6315C53.5944 15.8379 53.4604 16.0296 53.2072 16.1623C52.954 16.3097 52.6711 16.3981 52.3732 16.4276C50.0054 16.6635 48.7098 16.7815 48.4715 16.7962C47.6524 18.0494 46.4908 19.9955 45.0165 22.6346C43.5421 25.2736 42.7529 26.9396 42.6635 27.6031C42.6188 27.9127 42.6039 28.1486 42.6039 28.3402C42.6039 28.7383 42.8124 28.93 43.2294 28.93C43.6464 28.93 44.108 28.7678 44.6144 28.4582C45.1207 28.1338 45.5973 27.7947 46.0143 27.4261C47.161 26.4236 47.7716 25.9076 47.846 25.9076C48.1141 25.9076 48.2481 26.3646 48.2481 27.264C48.2481 27.7505 48.0247 28.1928 47.5631 28.5909C46.5355 29.4607 45.6717 30.1242 44.9718 30.5665C44.2719 31.0088 43.5719 31.2299 42.8571 31.2299C42.7082 31.2299 42.5593 31.2152 42.4252 31.1857C41.6062 31.0383 41.0105 30.7434 40.6382 30.3011C40.251 29.8588 40.0723 29.2691 40.0723 28.5319C40.0723 27.7947 40.2956 26.8806 40.7424 25.8191C41.1892 24.7576 41.7402 23.6224 42.4103 22.4282C43.5124 20.4673 44.6144 18.6391 45.7015 16.9289L45.1207 17.0026C43.9442 17.1353 43.2592 17.1943 43.0656 17.1943H42.9316C42.6337 17.1943 42.3508 17.1353 42.0827 17.0174C41.8146 16.8994 41.6657 16.752 41.6657 16.5898C41.6657 16.4129 41.7402 16.2507 41.8891 16.0885C42.038 15.9264 42.1274 15.7937 42.1572 15.7052C42.2316 15.4841 42.4997 15.2334 42.9613 14.968C43.423 14.7027 43.7655 14.5552 44.0038 14.5405C44.2421 14.5257 44.4655 14.511 44.6888 14.4963C44.9122 14.4815 45.1505 14.4815 45.4186 14.4668C45.6866 14.452 45.8951 14.452 46.044 14.4373L47.4141 14.3783C48.263 13.1104 48.8587 12.2848 49.1714 11.9309C49.4991 11.5623 49.6778 11.3707 49.7224 11.3412C49.7671 11.3117 49.8713 11.2822 50.0352 11.2822L50.7649 11.2085Z" fill="#B1B1B1"/>
<path d="M59.9235 25.9377C60.1171 25.9377 60.2362 26.0851 60.2809 26.38C60.3256 26.6748 60.3405 26.9697 60.3405 27.2941C60.3405 27.6184 60.3107 27.8248 60.2511 27.9428C59.9533 28.503 59.3129 29.1959 58.3152 30.0068C57.3174 30.8177 56.3643 31.2305 55.4707 31.2305C54.9197 31.2305 54.4134 31.0683 53.9368 30.744C53.4752 30.4196 53.2369 29.8447 53.2369 29.0338C53.2369 28.2229 53.4603 27.412 53.8922 26.6306C51.3605 29.7709 49.3947 31.3337 47.9502 31.3337C47.3842 31.3337 46.9226 31.1273 46.5652 30.7293C46.2078 30.3312 46.0439 29.9184 46.0439 29.4761C46.0439 29.0485 46.1035 28.6062 46.2226 28.1492C46.3418 27.6921 46.4758 27.2793 46.6099 26.9107C46.7439 26.5422 46.9524 26.0999 47.2204 25.5691C47.4885 25.0383 47.697 24.655 47.8161 24.4044C47.9353 24.1537 48.1586 23.7999 48.4565 23.3134C48.7543 22.8268 49.1266 22.1634 49.6032 21.3378C50.0797 20.5121 50.4669 19.8929 50.7797 19.4948C51.0924 19.0968 51.3902 18.8904 51.6881 18.8904C51.9859 18.8904 52.2391 19.0083 52.4625 19.2442C52.6859 19.4801 52.805 19.6865 52.805 19.8339C52.805 19.9814 52.4625 20.6596 51.7775 21.8685C49.767 25.4806 48.7543 27.5742 48.7543 28.1787C48.7543 28.3261 48.8139 28.3998 48.9181 28.3998C49.4096 28.3998 50.6308 27.353 52.5668 25.2595C54.5027 23.1659 55.6345 21.8243 55.9473 21.2346C56.26 20.6448 56.543 20.1435 56.8408 19.7455C57.1238 19.3474 57.3472 19.0968 57.4961 19.0083C57.928 18.7282 58.4939 18.5808 59.1938 18.5513C59.3129 18.5513 59.3874 18.5513 59.447 18.566C59.5065 18.5808 59.581 18.6692 59.6555 18.8166C59.7299 18.9641 59.7746 19.0968 59.7746 19.2C59.6852 19.4801 59.2831 20.232 58.5534 21.4557C57.8386 22.6794 57.4365 23.3723 57.3621 23.5198C56.1558 25.9819 55.5601 27.5889 55.5601 28.3261C55.5601 28.7536 55.7239 28.9601 56.0515 28.9601C56.6472 28.8863 57.3621 28.4145 58.196 27.5594C58.5088 27.2498 58.8066 26.9255 59.1044 26.6011C59.4023 26.2768 59.5959 26.0851 59.6555 26.0409C59.7299 25.9672 59.8193 25.9377 59.9235 25.9377Z" fill="#B1B1B1"/>
<path d="M64.346 22.4434C66.7437 19.7453 68.7988 18.389 70.4816 18.389C70.8986 18.389 71.2412 18.5069 71.5092 18.7575C71.7773 19.0082 71.9113 19.3178 71.9113 19.7159C71.9113 20.1139 71.6283 20.7626 71.0624 21.6915C70.4965 22.6055 69.9753 23.3869 69.4988 24.0209C69.2456 24.3453 68.9626 24.5074 68.635 24.5074C68.3223 24.5074 68.0691 24.3895 67.8904 24.1536C67.7117 23.9177 67.6223 23.6523 67.6223 23.3427C67.6223 22.6498 67.9946 21.8536 68.7541 20.9838L68.7243 20.9543C68.3818 20.9838 67.5628 21.6472 66.2225 22.9152C64.8971 24.1978 63.7652 25.3478 62.827 26.3503C61.9037 27.3676 60.891 28.5913 59.789 30.0509C59.4763 30.4785 59.2082 30.6996 58.9848 30.6996C58.7615 30.6996 58.4785 30.6259 58.1211 30.4932C57.7637 30.3605 57.5403 30.2573 57.4658 30.1984C57.3914 30.1394 57.3467 30.0362 57.3467 29.8887C57.3467 29.7561 57.3914 29.5791 57.4658 29.4022C57.5403 29.2106 57.7041 28.9452 57.9126 28.6061C58.1211 28.267 58.4636 27.7067 58.9104 26.9401C59.3571 26.1734 60.0422 25.0087 60.9804 23.4607C61.9186 21.9126 62.4696 20.969 62.6632 20.6447C63.0504 19.9812 63.3632 19.4947 63.6163 19.1998C64.078 18.6248 64.8524 18.3447 65.9395 18.3447C66.1778 18.3447 66.3118 18.4922 66.3118 18.8018C66.3118 19.2736 65.865 20.1729 64.9864 21.4703L64.346 22.4434Z" fill="#B1B1B1"/>
<path d="M80.7727 19.3765C80.7727 20.0399 80.5046 20.6297 79.9536 21.1309C79.4026 21.6322 78.792 21.8829 78.0921 21.8829C77.8687 21.8829 77.7198 21.8239 77.6453 21.7207C77.5709 21.6175 77.5411 21.47 77.5411 21.3079C77.5411 21.1457 77.556 20.9688 77.6007 20.8066C77.2283 20.9245 76.8262 21.1162 76.3795 21.3668C75.9327 21.6175 75.3817 21.9861 74.7264 22.4873C74.0712 22.9886 73.7436 23.3424 73.7436 23.5931C73.7436 23.6668 73.8627 23.711 74.101 23.711C74.3392 23.711 74.7116 23.6226 75.203 23.4604C75.6944 23.2982 76.0519 23.2098 76.2455 23.2098C76.4391 23.2098 76.5731 23.2245 76.6326 23.2392C76.7667 23.313 76.9007 23.4604 77.0645 23.6963C77.2135 23.9322 77.2879 24.1238 77.2879 24.2565C77.2879 24.3892 77.1539 24.5661 76.8858 24.7873C76.6178 25.0084 76.3199 25.1706 75.9923 25.2886C75.6498 25.4065 75.4264 25.495 75.3221 25.5539C73.1777 26.7481 72.1054 27.559 72.1054 28.0013C72.1054 28.7827 72.7756 29.1808 74.1308 29.1808C74.9945 29.1808 75.8731 28.9154 76.7369 28.3699C77.4815 27.9129 78.1517 27.4411 78.7474 26.9546C79.3431 26.4828 79.7153 26.1879 79.8792 26.07C80.043 25.952 80.1621 25.9078 80.2366 25.9078C80.5046 25.9078 80.6387 26.2026 80.6387 26.7924C80.6387 27.3821 80.6089 27.7654 80.5344 27.9424C80.46 28.134 80.2664 28.3552 79.9238 28.6353C77.7496 30.3897 75.6796 31.2743 73.7436 31.2743C72.7011 31.2743 71.882 31.1269 71.2565 30.8468C70.1098 30.3308 69.5439 29.5494 69.5439 28.4879C69.5439 27.102 70.512 26.0405 72.4628 25.3328C72.0756 25.1559 71.8225 24.9495 71.7182 24.6693C71.5991 24.404 71.5544 23.9764 71.5544 23.3867C71.5544 22.7969 71.8374 22.1777 72.3884 21.5143C72.9394 20.8508 73.6244 20.3053 74.4286 19.8925C76.2157 18.9342 77.824 18.4624 79.2239 18.4624C79.5664 18.4624 79.8941 18.5361 80.2515 18.6983C80.6089 18.8605 80.7727 19.0816 80.7727 19.3765Z" fill="#B1B1B1"/>
<path d="M115.531 9.11529H115.725C115.784 9.11529 115.829 9.11529 115.844 9.13003C115.859 9.14477 115.874 9.14477 115.903 9.15952C115.933 9.15952 115.948 9.17426 115.978 9.20375C116.023 9.24798 116.097 9.29221 116.186 9.33644C116.306 9.4249 116.365 9.5281 116.365 9.64605C116.365 9.76399 116.246 10.0146 116.008 10.398C115.769 10.7813 115.159 11.7101 114.161 13.2139C111.883 16.6639 109.842 19.8779 108.04 22.8266C104.928 27.9572 103.349 30.5373 103.319 30.5668C103.29 30.5963 103.275 30.6258 103.26 30.6553C103.245 30.7142 103.215 30.7437 103.141 30.7437L102.932 30.6995L102.515 30.8027L102.277 30.7585L102.024 30.8027H101.935L101.086 30.9207C100.579 30.9207 100.326 30.7437 100.326 30.4046C100.326 30.2572 100.371 30.0803 100.46 29.8739C100.773 29.1367 102.366 26.4682 105.226 21.8388C103.349 21.883 101.488 21.9125 99.656 21.9125L96.3797 21.8977C95.8436 22.7529 95.099 23.9618 94.1608 25.5393C92.1354 28.9745 91.0632 30.6995 90.9291 30.729C90.7951 30.7585 90.6909 30.788 90.6015 30.788C90.5122 30.788 90.4377 30.7437 90.3781 30.6405C90.3037 30.5521 90.259 30.4931 90.2292 30.4931C90.1994 30.4931 90.1547 30.5078 90.0654 30.5521C89.9909 30.5963 89.8718 30.611 89.708 30.611L89.3506 30.5963L89.2165 30.5078C89.2016 30.5078 89.1868 30.5226 89.1719 30.5521C89.157 30.5816 89.1123 30.5963 89.0527 30.5963C88.6208 30.5963 88.3975 30.4194 88.3975 30.0508C88.3975 29.8149 88.4868 29.4906 88.6506 29.0925C88.8293 28.6944 89.0527 28.2669 89.3357 27.8098C89.6186 27.3528 90.3334 26.247 91.5099 24.5221C92.6715 22.7971 93.2523 21.9272 93.2523 21.9125C93.0587 21.8977 92.8353 21.8977 92.5822 21.883C92.0609 21.883 91.7035 21.8683 91.4801 21.824C90.8993 21.7208 90.4973 21.249 90.2888 20.4087C90.1696 19.9959 90.125 19.7305 90.1399 19.5978C90.1399 19.3324 90.259 19.185 90.4973 19.185L90.8993 19.2882C91.1078 19.3029 91.5844 19.3177 92.3588 19.3619C93.1332 19.4061 93.6842 19.4209 94.0267 19.4209L94.8905 19.3914C96.2159 17.3421 97.7945 15.0126 99.6411 12.4178C98.3008 13.5088 96.8116 14.0543 95.1734 14.0543C94.399 14.0543 93.7289 13.8774 93.1779 13.5088C92.612 13.1402 92.3439 12.6684 92.3439 12.1082C92.3439 11.5479 92.5524 11.1056 92.9843 10.7665C93.4161 10.4422 93.8182 10.28 94.2054 10.28C94.5926 10.28 94.7862 10.339 94.7862 10.4569C94.7862 10.5012 94.7267 10.5454 94.6224 10.5896C94.5182 10.6486 94.4586 10.6928 94.4586 10.7371C94.4586 10.8992 94.6373 11.0467 94.9947 11.1646C95.3521 11.2826 95.7542 11.3563 96.201 11.3563C96.6477 11.3563 97.1839 11.2236 97.8391 10.9729C98.4944 10.7223 99.1645 10.3832 99.8645 9.98514C100.847 9.4249 101.622 8.95311 102.188 8.58453C102.515 8.42235 102.813 8.34863 103.111 8.34863C103.409 8.34863 103.602 8.37812 103.736 8.45184C103.871 8.51081 103.96 8.58453 104.019 8.6435C104.079 8.70247 104.153 8.79093 104.213 8.89414C104.287 8.99734 104.347 9.0858 104.422 9.13003C104.481 9.189 104.526 9.24797 104.526 9.32169C104.526 9.39541 104.481 9.49861 104.407 9.66079C104.332 9.80822 103.945 10.4274 103.245 11.5037C102.545 12.58 101.637 13.9511 100.535 15.6171C99.4326 17.2831 98.6284 18.5068 98.1221 19.3029C100.847 19.3029 103.781 19.2587 106.938 19.1555C110.78 13.155 112.806 10.0146 113.014 9.71976C113.223 9.4249 113.416 9.23323 113.595 9.14477C113.774 9.05631 113.982 9.01208 114.235 9.01208L115.531 9.11529Z" fill="#B1B1B1"/>
<path d="M120.505 19.1704C120.818 19.1704 121.131 19.3031 121.444 19.5832C121.771 19.8633 121.92 20.2761 121.92 20.8364C121.92 21.3966 121.727 22.119 121.324 23.0184C120.922 23.903 120.386 24.8171 119.686 25.7459C119.001 26.66 118.227 27.5298 117.408 28.3407C116.574 29.1516 115.68 29.8151 114.727 30.3311C113.759 30.8471 112.895 31.1125 112.106 31.1125C111.317 31.1125 110.691 30.8618 110.215 30.3753C109.738 29.8888 109.5 29.2106 109.5 28.3407C109.5 27.4709 109.723 26.4978 110.155 25.451C110.587 24.3895 111.138 23.4607 111.823 22.6498C112.508 21.8389 113.238 21.1165 114.042 20.4678C115.695 19.1409 117.155 18.4922 118.406 18.4922C118.971 18.4922 119.388 18.6249 119.671 18.905C119.776 18.9935 119.82 19.0819 119.82 19.1409V19.2294C119.984 19.1704 120.208 19.1704 120.505 19.1704ZM118.971 21.1755H118.867C118.51 21.1755 118.331 20.9248 118.331 20.4088C117.586 20.6447 116.812 21.0723 115.993 21.6767C115.174 22.2812 114.444 23.0036 113.804 23.8293C112.493 25.4805 111.838 26.8811 111.823 28.0164C111.823 28.5766 112.032 28.8567 112.449 28.8567C112.866 28.8567 113.491 28.5766 114.31 28.0459C115.129 27.5151 115.948 26.7337 116.767 25.7164C117.572 24.7139 118.182 23.8293 118.584 23.0921C118.986 22.3549 119.195 21.8537 119.195 21.5735C119.18 21.3082 119.105 21.1755 118.971 21.1755Z" fill="#B1B1B1"/>
<path d="M121.592 30.7731L120.848 30.7436H120.58C120.475 30.7141 120.371 30.6552 120.252 30.5667C120.133 30.4782 120.043 30.4045 119.984 30.375C119.924 30.3455 119.895 30.2571 119.895 30.1539C119.895 30.0507 119.939 29.859 120.014 29.6084C121.994 25.2886 123.915 21.8239 125.777 19.2438C125.985 18.9637 126.313 18.7425 126.76 18.5951C127.207 18.4477 127.653 18.374 128.085 18.374C128.338 18.374 128.472 18.5656 128.472 18.9637C128.472 19.0816 128.428 19.2291 128.353 19.406C128.279 19.5977 128.07 19.8925 127.743 20.3201C127.415 20.7476 127.028 21.2342 126.581 21.7649C126.134 22.2957 125.881 22.62 125.822 22.7085C127.222 21.2784 128.472 20.2169 129.604 19.5092C130.736 18.8163 131.54 18.4624 132.047 18.4624C132.553 18.4624 132.94 18.6099 133.208 18.89C133.476 19.1701 133.61 19.4797 133.61 19.8041C133.61 20.1284 133.581 20.4085 133.536 20.615C133.491 20.8361 133.402 21.0573 133.283 21.2931C133.164 21.529 133.059 21.7354 132.97 21.8976C132.881 22.0598 132.732 22.2809 132.538 22.5463C132.33 22.8117 132.196 23.0034 132.121 23.1066C132.047 23.2098 131.883 23.4014 131.645 23.6816C131.406 23.9617 131.272 24.1239 131.257 24.1533C131.54 23.8732 131.942 23.4604 132.449 22.9002C132.955 22.3399 133.387 21.8829 133.744 21.5143C134.102 21.1457 134.534 20.7182 135.07 20.2464C135.606 19.7746 136.097 19.3913 136.544 19.1111C137.646 18.4329 138.763 18.0791 139.895 18.0791C140.282 18.0791 140.61 18.197 140.878 18.4477C141.146 18.6983 141.28 18.9784 141.28 19.3175C141.28 19.6566 140.863 20.4675 140.044 21.7354C139.225 23.0034 138.391 24.286 137.572 25.5687C136.753 26.8514 136.336 27.6623 136.336 28.0014C136.336 28.4584 136.425 28.7385 136.589 28.827C136.767 28.9154 136.976 28.9449 137.214 28.9302C137.452 28.9154 137.81 28.7533 138.242 28.4584C138.689 28.1635 139.076 27.8687 139.418 27.5443C139.984 27.043 140.491 26.5565 140.982 26.0847C141.086 25.9963 141.19 25.952 141.324 25.952C141.518 25.952 141.637 26.0995 141.682 26.3943C141.727 26.6892 141.741 26.9841 141.741 27.3084C141.741 27.6328 141.712 27.8392 141.652 27.9571C141.354 28.5174 140.699 29.2103 139.701 30.0359C138.689 30.8468 137.721 31.2596 136.797 31.2596C136.678 31.2596 136.604 31.2596 136.559 31.2449C135.516 31.1417 134.787 30.8616 134.385 30.3898C133.983 29.918 133.789 29.3577 133.789 28.7238C133.789 28.0898 134.012 27.2937 134.459 26.3796C134.906 25.4655 135.382 24.6251 135.919 23.888C136.455 23.1508 136.931 22.4726 137.378 21.8681C137.825 21.2637 138.048 20.9393 138.048 20.8951C138.048 20.8508 138.003 20.8214 137.929 20.8214C137.616 20.8214 136.916 21.3226 135.814 22.3399C133.953 24.0649 132.344 25.7309 130.989 27.3232C130.632 27.7507 129.783 28.8122 128.458 30.5372C128.309 30.7436 128.055 30.8468 127.728 30.8468C127.4 30.8468 127.058 30.7878 126.7 30.6551C126.343 30.5225 126.164 30.3603 126.164 30.1686C126.164 30.0654 126.968 28.6501 128.592 25.9225C130.215 23.195 131.019 21.706 131.019 21.4701C131.019 21.2194 130.87 21.1015 130.572 21.1015C130.274 21.1015 129.649 21.5438 128.711 22.4284C126.134 24.861 124.139 27.2937 122.724 29.6968C122.635 29.8443 122.456 30.0654 122.188 30.3603C121.92 30.6552 121.682 30.7731 121.592 30.7731Z" fill="#B1B1B1"/>
<path d="M151.123 19.3765C151.123 20.0399 150.855 20.6297 150.304 21.1309C149.753 21.6322 149.143 21.8829 148.443 21.8829C148.219 21.8829 148.07 21.8239 147.996 21.7207C147.921 21.6175 147.892 21.47 147.892 21.3079C147.892 21.1457 147.907 20.9688 147.951 20.8066C147.579 20.9245 147.177 21.1162 146.73 21.3668C146.283 21.6175 145.732 21.9861 145.077 22.4873C144.422 22.9886 144.094 23.3424 144.094 23.5931C144.094 23.6668 144.213 23.711 144.452 23.711C144.69 23.711 145.062 23.6226 145.554 23.4604C146.045 23.2982 146.402 23.2098 146.596 23.2098C146.79 23.2098 146.924 23.2245 146.983 23.2392C147.117 23.313 147.251 23.4604 147.415 23.6963C147.564 23.9322 147.638 24.1238 147.638 24.2565C147.638 24.3892 147.504 24.5661 147.236 24.7873C146.968 25.0084 146.671 25.1706 146.343 25.2886C146 25.4065 145.777 25.495 145.673 25.5539C143.528 26.7481 142.456 27.559 142.456 28.0013C142.456 28.7827 143.126 29.1808 144.481 29.1808C145.345 29.1808 146.224 28.9154 147.087 28.3699C147.832 27.9129 148.502 27.4411 149.098 26.9546C149.694 26.4828 150.066 26.1879 150.23 26.07C150.394 25.952 150.513 25.9078 150.587 25.9078C150.855 25.9078 150.989 26.2026 150.989 26.7924C150.989 27.3821 150.959 27.7654 150.885 27.9424C150.811 28.134 150.617 28.3552 150.274 28.6353C148.1 30.3897 146.03 31.2743 144.094 31.2743C143.052 31.2743 142.233 31.1269 141.607 30.8468C140.46 30.3308 139.895 29.5494 139.895 28.4879C139.895 27.102 140.863 26.0405 142.813 25.3328C142.426 25.1559 142.173 24.9495 142.069 24.6693C141.95 24.404 141.905 23.9764 141.905 23.3867C141.905 22.7969 142.188 22.1777 142.739 21.5143C143.29 20.8508 143.975 20.3053 144.779 19.8925C146.566 18.9342 148.175 18.4624 149.574 18.4624C149.917 18.4624 150.245 18.5361 150.602 18.6983C150.959 18.8605 151.123 19.0816 151.123 19.3765Z" fill="#B1B1B1"/>
<path d="M0.161133 34.8574C4.07779 36.4791 8.0689 37.7323 12.1345 38.6906C16.1703 39.6932 20.2806 40.4009 24.3908 40.8431C26.4459 41.1233 28.516 41.1528 30.5562 41.3444C32.6262 41.3592 34.6813 41.5213 36.7365 41.4034L39.8192 41.3297C40.8467 41.3149 41.8743 41.1822 42.9019 41.1233C43.9294 41.0348 44.957 40.9906 45.9697 40.8579L49.0226 40.4303C53.1179 39.988 57.0942 39.0445 61.0555 37.9092C65.0615 36.8182 68.8441 35.3734 72.8502 33.8696C76.9455 32.3805 81.3834 31.4074 85.8809 31.8792C88.0998 32.1593 90.3336 32.867 92.1505 34.1644C93.9822 35.4471 95.2928 37.2753 96.1267 39.1919C94.8758 37.4817 93.3121 36.0811 91.5101 35.2112C89.7082 34.3413 87.7275 33.9875 85.7617 34.0465C81.7855 34.1055 77.8688 35.4176 74.1904 37.0689C70.4525 38.897 66.4018 40.5483 62.3213 41.9194C58.2111 43.2316 53.9668 44.2783 49.6629 44.8091C41.0999 45.9296 32.3284 45.9443 23.8696 44.2489C19.6253 43.4822 15.4852 42.288 11.4792 40.7694C7.50299 39.1919 3.61613 37.349 0.161133 34.8574Z" fill="#B1B1B1"/>
<path d="M142.575 10.3096C139.254 8.90903 135.874 7.81803 132.448 6.96291C129.038 6.06357 125.583 5.42961 122.113 4.98731C120.386 4.72193 118.628 4.66296 116.901 4.45655C115.158 4.41232 113.431 4.2354 111.689 4.30912C110.825 4.32386 109.946 4.32386 109.082 4.30912C108.219 4.30912 107.34 4.39758 106.476 4.42707C105.613 4.48604 104.734 4.50078 103.87 4.58924L101.279 4.89885C97.809 5.17897 94.4434 5.88665 91.0777 6.75651C87.6674 7.56739 84.4358 8.71737 80.9957 9.86735C77.4662 11.0321 73.6389 11.7398 69.7967 11.209C67.9054 10.8994 65.9992 10.2359 64.495 9.05647C62.9611 7.89174 61.9187 6.29947 61.2783 4.63347C62.3357 6.09306 63.6462 7.28727 65.1503 8.02444C66.6544 8.7616 68.3075 9.07121 69.9605 9.05647C73.2964 9.05647 76.6024 7.99495 79.7298 6.66805C82.9167 5.16423 86.4164 3.83733 89.9012 2.74633C93.4158 1.69955 97.0793 0.903413 100.743 0.520087C108.055 -0.246566 115.531 -0.0696462 122.694 1.61109C126.283 2.363 129.783 3.51298 133.133 4.92834C136.499 6.37318 139.746 8.05392 142.575 10.3096Z" fill="#B1B1B1"/>
</svg>
