<svg width="137" height="45" viewBox="0 0 137 45" fill="none" xmlns="http://www.w3.org/2000/svg">
<path d="M12.1372 0.960938V1.1526L11.333 1.34426V9.83642L12.1372 10.0281V10.2197H8.32476V10.0281L9.12895 9.83642V2.59745L5.9718 10.3524H5.56968L1.47432 2.59745V9.63001L2.54656 10.0281V10.2197H0V10.0281L1.07224 9.63001V1.34426L0.268049 1.1526V0.960938H1.93597C2.18914 0.960938 2.41253 0.990423 2.59124 1.0494C2.76994 1.10837 2.94867 1.18209 3.0827 1.28529C3.23163 1.38849 3.35076 1.50644 3.45501 1.63913C3.55926 1.77182 3.64861 1.934 3.73797 2.09617L6.65683 7.62492L8.89067 2.09617C8.96513 1.90451 9.03961 1.74233 9.14386 1.60964C9.23321 1.47695 9.35232 1.35901 9.48635 1.2558C9.62038 1.1526 9.78422 1.07888 9.97782 1.03465C10.1714 0.990423 10.4097 0.960938 10.7075 0.960938H12.1372Z" fill="#0154F7"/>
<path d="M16.9028 3.42334C17.4538 3.42334 17.9601 3.49706 18.392 3.65923C18.8239 3.82141 19.1962 4.0573 19.5089 4.35217C19.8216 4.66178 20.045 5.03036 20.2088 5.45792C20.3727 5.88547 20.4471 6.38675 20.4471 6.93225C20.4471 7.47775 20.3727 7.97902 20.2088 8.40658C20.045 8.83414 19.8067 9.20272 19.5089 9.51233C19.1962 9.82194 18.8239 10.0431 18.392 10.2053C17.9601 10.3674 17.4538 10.4412 16.9028 10.4412C16.3517 10.4412 15.8454 10.3674 15.4135 10.2053C14.9817 10.0431 14.6094 9.8072 14.2966 9.51233C13.9839 9.20272 13.7605 8.83414 13.5967 8.40658C13.4329 7.97902 13.3584 7.47775 13.3584 6.93225C13.3584 6.38675 13.4329 5.88547 13.5967 5.45792C13.7605 5.03036 13.9988 4.66178 14.2966 4.35217C14.6094 4.04256 14.9817 3.82141 15.4135 3.65923C15.8454 3.49706 16.3369 3.42334 16.9028 3.42334ZM16.9028 10.1905C17.0517 10.1905 17.2006 10.1463 17.3644 10.0431C17.5133 9.93989 17.6474 9.77771 17.7665 9.52707C17.8856 9.27644 17.9899 8.95208 18.0644 8.53927C18.1388 8.11171 18.1835 7.58095 18.1835 6.94699C18.1835 6.29829 18.1388 5.76753 18.0644 5.35471C17.9899 4.9419 17.8856 4.6028 17.7665 4.36691C17.6474 4.13102 17.5133 3.9541 17.3644 3.8509C17.2155 3.74769 17.0666 3.70346 16.9028 3.70346C16.7538 3.70346 16.6049 3.74769 16.4411 3.8509C16.2922 3.9541 16.1581 4.11627 16.039 4.36691C15.9198 4.61755 15.8156 4.9419 15.7412 5.35471C15.6667 5.78227 15.622 6.31303 15.622 6.94699C15.622 7.5957 15.6667 8.12646 15.7412 8.53927C15.8156 8.95208 15.9198 9.29118 16.039 9.52707C16.1581 9.76297 16.2922 9.93989 16.4411 10.0431C16.59 10.1315 16.7389 10.1905 16.9028 10.1905Z" fill="#0154F7"/>
<path d="M26.9547 0.960938C27.7589 0.960938 28.161 1.35901 28.161 2.15515V9.85116L28.9652 10.0428V10.2345H27.7589C27.4313 10.2345 27.1781 10.1903 26.9845 10.0871C26.7909 9.98385 26.6271 9.8659 26.5228 9.74796C26.3888 9.60052 26.2846 9.4236 26.225 9.24668C26.1059 9.48258 25.9569 9.67424 25.7782 9.85116C25.6293 9.99859 25.4208 10.1313 25.1676 10.264C24.9145 10.3967 24.6166 10.4556 24.2741 10.4556C23.8869 10.4556 23.5295 10.3819 23.2018 10.2345C22.8593 10.0871 22.5764 9.8659 22.3381 9.57103C22.0998 9.27617 21.8914 8.90759 21.7573 8.48003C21.6084 8.03773 21.5488 7.53646 21.5488 6.94672C21.5488 6.35699 21.6233 5.85572 21.7573 5.41342C21.9063 4.97112 22.0998 4.61728 22.3679 4.32241C22.6211 4.02755 22.9338 3.8064 23.2912 3.65896C23.6487 3.51153 24.0507 3.43781 24.4975 3.43781C24.7358 3.43781 24.9443 3.4673 25.1379 3.51153C25.3315 3.5705 25.4953 3.62948 25.6293 3.7032C25.7931 3.77691 25.9271 3.86537 26.0463 3.96858V1.3885L25.2421 1.19683V1.00517H26.9547V0.960938ZM26.0165 4.3519C25.9123 4.2487 25.8229 4.16024 25.7038 4.08652C25.5995 4.01281 25.4953 3.95383 25.3761 3.89486C25.257 3.83588 25.1379 3.82114 25.0038 3.82114C24.84 3.82114 24.6762 3.86537 24.5273 3.95383C24.3784 4.04229 24.2592 4.18972 24.1401 4.41087C24.0358 4.63202 23.9465 4.95638 23.8869 5.35444C23.8274 5.76726 23.7976 6.28327 23.7976 6.93198C23.7976 7.56594 23.8274 8.06722 23.8869 8.46529C23.9465 8.86336 24.021 9.17296 24.1252 9.39411C24.2146 9.61526 24.3188 9.77744 24.4528 9.85116C24.572 9.92487 24.6911 9.9691 24.8102 9.9691C25.0187 9.9691 25.1974 9.91013 25.3463 9.80693C25.4953 9.70372 25.6144 9.57103 25.7186 9.43834C25.8378 9.27617 25.9421 9.09925 26.0314 8.90758V4.3519H26.0165Z" fill="#0154F7"/>
<path d="M33.4479 10.4558C32.3012 10.4558 31.4077 10.1462 30.7822 9.52698C30.1419 8.90776 29.8291 8.0379 29.8291 6.9469C29.8291 6.40139 29.9036 5.90012 30.0674 5.47256C30.2312 5.04501 30.4546 4.67643 30.7376 4.36682C31.0205 4.05721 31.363 3.83606 31.78 3.67388C32.1821 3.5117 32.6288 3.43799 33.1203 3.43799C33.6266 3.43799 34.0734 3.5117 34.4606 3.64439C34.8627 3.79183 35.1903 3.98349 35.4733 4.21939C35.7562 4.45528 35.9647 4.7354 36.1136 5.05975C36.2626 5.38411 36.337 5.7232 36.337 6.09178C36.337 6.20973 36.337 6.32768 36.3221 6.41614C36.3072 6.5046 36.2924 6.59306 36.2775 6.66678C36.2477 6.75524 36.2328 6.82895 36.203 6.88792C35.8158 6.96164 35.3988 7.03536 34.952 7.07959C34.5797 7.13856 34.1479 7.18279 33.6564 7.21228C33.165 7.24176 32.6586 7.27125 32.1225 7.27125C32.1225 7.81675 32.1672 8.2738 32.2416 8.64238C32.3161 9.01096 32.4352 9.30583 32.5693 9.51223C32.7182 9.73338 32.882 9.88082 33.0756 9.96928C33.2692 10.0577 33.4926 10.102 33.716 10.102C33.9841 10.102 34.2372 10.0577 34.4755 9.95453C34.7137 9.85133 34.9222 9.73338 35.0861 9.57121C35.2648 9.40903 35.3988 9.21737 35.503 9.01096C35.6073 8.80456 35.652 8.59815 35.652 8.377H35.9796C35.9796 8.64238 35.92 8.89301 35.8009 9.14365C35.6818 9.39429 35.5031 9.61544 35.2797 9.8071C35.0563 9.99876 34.7882 10.1462 34.4755 10.2641C34.1776 10.3968 33.8351 10.4558 33.4479 10.4558ZM32.1076 6.93215C32.4055 6.93215 32.6735 6.93216 32.9118 6.91741C33.1501 6.90267 33.3437 6.88792 33.5075 6.87318C33.7011 6.85844 33.85 6.82895 33.984 6.81421C33.9989 6.72575 34.0287 6.62255 34.0436 6.51934C34.0585 6.41614 34.0734 6.31293 34.0883 6.19499C34.1032 6.07704 34.1032 5.94435 34.1032 5.81166C34.1032 5.41359 34.0734 5.0745 34.0138 4.80912C33.9542 4.54374 33.8798 4.32259 33.7755 4.14567C33.6862 3.98349 33.5819 3.8508 33.4479 3.79183C33.3139 3.73285 33.2096 3.68862 33.0905 3.68862C32.9714 3.68862 32.8522 3.73285 32.7331 3.82131C32.614 3.90977 32.5097 4.07195 32.4055 4.2931C32.3161 4.52899 32.2268 4.85335 32.1672 5.2809C32.1076 5.70846 32.1076 6.25396 32.1076 6.93215Z" fill="#0154F7"/>
<path d="M41.9664 3.88002C41.6984 3.88002 41.4601 3.93899 41.2516 4.04219C41.0431 4.1454 40.8644 4.27809 40.7155 4.41078C40.5517 4.57295 40.4176 4.74987 40.2836 4.94154V9.85106L41.0878 10.0427V10.2344H37.335V10.0427L38.1392 9.85106V4.01271L37.335 3.82104V3.62938H38.5412C38.854 3.62938 39.1071 3.68835 39.3156 3.79156C39.5092 3.89476 39.673 4.01271 39.7922 4.13065C39.9262 4.27809 40.0305 4.44026 40.09 4.61718C40.2241 4.42552 40.3879 4.2486 40.5815 4.08642C40.7453 3.95373 40.9538 3.83579 41.207 3.71784C41.4601 3.59989 41.7431 3.55566 42.0856 3.55566C42.5621 3.55566 42.9196 3.67361 43.1578 3.88002C43.3961 4.10117 43.5003 4.41078 43.5003 4.80885C43.5003 5.10371 43.411 5.35435 43.2323 5.53127C43.0536 5.70819 42.8004 5.79665 42.5026 5.79665C42.4281 5.79665 42.3685 5.79665 42.2941 5.79665C42.2196 5.79665 42.1749 5.78191 42.1303 5.78191C42.0707 5.76716 42.0111 5.76716 41.9664 5.73767V3.88002Z" fill="#0154F7"/>
<path d="M49.2633 5.60496C49.2633 5.31009 49.2335 5.04471 49.1739 4.82356C49.1143 4.60241 49.0399 4.42549 48.9357 4.2928C48.8463 4.14537 48.7421 4.04216 48.608 3.98319C48.4889 3.92422 48.3697 3.87999 48.2506 3.87999C48.0421 3.87999 47.8634 3.93896 47.7145 4.04217C47.5656 4.14537 47.4316 4.27806 47.3422 4.41075C47.2231 4.57293 47.1337 4.74985 47.0443 4.94151V9.85103L47.8485 10.0427V10.2344H44.0957V10.0427L44.8999 9.85103V4.01268L44.0957 3.82102V3.62935H45.302C45.6147 3.62935 45.8679 3.68833 46.0764 3.79153C46.27 3.89473 46.4338 4.01268 46.5529 4.13063C46.6869 4.27806 46.7912 4.44023 46.8507 4.61715C46.9699 4.396 47.1188 4.1896 47.2975 4.01268C47.4464 3.86525 47.6549 3.73256 47.8932 3.59987C48.1315 3.46718 48.4442 3.4082 48.8016 3.4082C49.1888 3.4082 49.5463 3.46718 49.859 3.59987C50.1866 3.71781 50.4547 3.89473 50.678 4.0864C50.9014 4.2928 51.0802 4.51395 51.2142 4.77933C51.3482 5.04471 51.4078 5.31009 51.4078 5.59021V9.83629L52.2119 10.028V10.2196H50.4696C49.6654 10.2196 49.2633 9.82155 49.2633 9.02541V5.60496Z" fill="#0154F7"/>
<path d="M1.41504 19.5523V19.0068H11.7651V19.5523L9.59086 20.0978V31.229H17.3944V20.0978L15.2201 19.5523V19.0068H25.5703V19.5523L23.396 20.0978V43.0974L25.5703 43.6429V44.1884H15.2201V43.6282L17.3944 43.0827V32.1284H9.59086V43.0827L11.7651 43.6282V44.1737H1.41504V43.6282L3.58929 43.0827V20.0831L1.41504 19.5523Z" fill="#0154F7"/>
<path d="M38.4368 25.6562C39.9409 25.6562 41.2812 25.8774 42.4726 26.305C43.6639 26.7325 44.6617 27.3665 45.4957 28.1921C46.3297 29.0177 46.97 30.0203 47.4019 31.1997C47.8338 32.3792 48.0572 33.7061 48.0572 35.1952C48.0572 36.6843 47.8338 38.0111 47.4019 39.1906C46.97 40.3701 46.3297 41.3579 45.4957 42.1835C44.6617 43.0091 43.6491 43.6431 42.4726 44.0707C41.2812 44.4982 39.9409 44.7194 38.4368 44.7194C36.9327 44.7194 35.5924 44.4982 34.401 44.0707C33.2096 43.6431 32.2118 43.0091 31.3779 42.1835C30.5439 41.3579 29.9035 40.3553 29.4717 39.1906C29.0398 38.0111 28.8164 36.6843 28.8164 35.1952C28.8164 33.7061 29.0398 32.3792 29.4717 31.1997C29.9035 30.0203 30.5439 29.0325 31.3779 28.1921C32.2118 27.3517 33.2245 26.7325 34.401 26.305C35.5924 25.8774 36.9327 25.6562 38.4368 25.6562ZM38.4368 43.9822C38.8538 43.9822 39.2559 43.8495 39.6729 43.5841C40.0898 43.3187 40.4472 42.8617 40.7749 42.1983C41.1025 41.5348 41.3706 40.6355 41.5791 39.5002C41.7876 38.365 41.8918 36.9201 41.8918 35.1657C41.8918 33.4112 41.7876 31.9664 41.5791 30.8312C41.3706 29.6959 41.1025 28.7966 40.7749 28.1331C40.4472 27.4697 40.075 27.0126 39.6729 26.7473C39.2708 26.4819 38.8538 26.3492 38.4368 26.3492C38.0198 26.3492 37.6177 26.4819 37.2007 26.7473C36.7838 27.0126 36.4263 27.4697 36.0987 28.1331C35.7711 28.7966 35.503 29.6959 35.2945 30.8312C35.086 31.9664 34.9818 33.4112 34.9818 35.1657C34.9818 36.9201 35.086 38.365 35.2945 39.5002C35.503 40.6355 35.7711 41.5348 36.0987 42.1983C36.4263 42.8617 36.7987 43.3187 37.2007 43.5841C37.6177 43.8495 38.0198 43.9822 38.4368 43.9822Z" fill="#0154F7"/>
<path d="M75.2653 31.5828C75.2653 30.7277 75.1909 29.9905 75.042 29.4155C74.893 28.8405 74.7143 28.354 74.4761 27.9854C74.2378 27.6168 73.9846 27.3514 73.7165 27.1745C73.4336 27.0123 73.1655 26.9239 72.8975 26.9239C72.4358 26.9239 72.0337 27.0713 71.6763 27.3662C71.3189 27.661 71.0211 28.0001 70.753 28.354C70.47 28.7815 70.202 29.2681 69.9935 29.7841V43.0826L72.1826 43.6281V44.1736H62.0261V43.6281L64.2004 43.0826V31.5828C64.2004 30.7277 64.1259 29.9905 63.977 29.4155C63.8281 28.8405 63.6494 28.354 63.4111 27.9854C63.1728 27.6168 62.9197 27.3514 62.6516 27.1745C62.3687 27.0123 62.1006 26.9239 61.8325 26.9239C61.3709 26.9239 60.9688 27.0713 60.6114 27.3662C60.254 27.661 59.9561 28.0001 59.688 28.354C59.3902 28.7815 59.137 29.2681 58.9286 29.7841V43.0826L61.1028 43.6281V44.1736H50.9463V43.6281L53.1206 43.0826V27.2777L50.9463 26.7322V26.1867H54.2077C55.0566 26.1867 55.7565 26.3341 56.2926 26.6143C56.8436 26.8944 57.2606 27.2187 57.5883 27.5431C57.9457 27.9559 58.2137 28.3982 58.3924 28.87C58.7051 28.2655 59.0923 27.7348 59.554 27.2482C59.971 26.8354 60.4774 26.4668 61.073 26.1277C61.6836 25.7886 62.4133 25.6265 63.292 25.6265C64.7365 25.6265 66.0023 25.9508 67.0448 26.5848C68.1021 27.2187 68.9064 28.0444 69.4574 29.0469C69.7701 28.4277 70.1573 27.8675 70.619 27.3514C71.036 26.9239 71.5423 26.5258 72.138 26.172C72.7485 25.8181 73.4783 25.6265 74.3569 25.6265C75.3547 25.6265 76.2482 25.7886 77.0822 26.0983C77.9013 26.4079 78.6161 26.8354 79.2118 27.3809C79.8075 27.9264 80.2691 28.5456 80.5967 29.2681C80.9244 29.9905 81.0882 30.7571 81.0882 31.568V43.0678L83.2625 43.6133V44.1588H78.5416C76.3673 44.1588 75.2802 43.0826 75.2802 40.93V31.5828H75.2653Z" fill="#0154F7"/>
<path d="M95.2356 44.7042C92.1381 44.7042 89.7255 43.8639 88.0129 42.1684C86.3003 40.4729 85.4365 38.1582 85.4365 35.18C85.4365 33.691 85.6599 32.3641 86.0918 31.1846C86.5237 30.0051 87.1342 29.0173 87.9086 28.177C88.683 27.3513 89.6213 26.7174 90.7233 26.2898C91.8253 25.8623 93.0316 25.6411 94.3272 25.6411C95.6824 25.6411 96.9036 25.8328 97.9758 26.2161C99.0481 26.5994 99.9714 27.1154 100.716 27.7641C101.461 28.4129 102.041 29.1795 102.443 30.0494C102.846 30.9192 103.039 31.848 103.039 32.8358C103.039 33.1749 103.024 33.4698 102.98 33.7204C102.935 33.9711 102.905 34.1922 102.846 34.3839C102.771 34.6198 102.712 34.8262 102.667 34.9884C101.595 35.2095 100.478 35.3864 99.2863 35.5339C98.2737 35.6813 97.0972 35.7993 95.7717 35.9172C94.4463 36.0204 93.0465 36.0794 91.6019 36.0794C91.6019 37.5685 91.7062 38.8069 91.9296 39.7947C92.1529 40.7825 92.4508 41.5786 92.838 42.1684C93.2252 42.7581 93.6868 43.1709 94.2229 43.4215C94.7591 43.6722 95.3399 43.8049 95.9653 43.8049C96.6951 43.8049 97.3801 43.6722 98.0205 43.4068C98.6609 43.1414 99.2119 42.7876 99.6884 42.3453C100.165 41.903 100.537 41.4017 100.82 40.8415C101.103 40.2812 101.237 39.7062 101.237 39.1312H102.146C102.146 39.8537 101.982 40.5466 101.654 41.2101C101.327 41.8882 100.865 42.478 100.254 42.994C99.6437 43.51 98.9289 43.9228 98.0801 44.2324C97.2163 44.542 96.2632 44.7042 95.2356 44.7042ZM91.6019 35.18C92.421 35.18 93.1507 35.1653 93.7762 35.1211C94.4017 35.0768 94.9378 35.0473 95.3697 35.0031C95.876 34.9589 96.3079 34.8999 96.6802 34.8262C96.7249 34.5903 96.7844 34.3249 96.8589 34.0301C96.9036 33.7647 96.9482 33.4698 96.978 33.1455C97.0078 32.8211 97.0376 32.482 97.0376 32.1282C97.0376 31.0519 96.9482 30.1526 96.7844 29.4154C96.6206 28.6782 96.3972 28.0885 96.144 27.6315C95.8909 27.1744 95.5931 26.8501 95.2803 26.6584C94.9527 26.4667 94.625 26.3635 94.3123 26.3635C93.9995 26.3635 93.6719 26.4815 93.3443 26.7026C93.0167 26.9385 92.7337 27.3661 92.4806 28C92.2274 28.634 92.0189 29.5333 91.8402 30.6833C91.6913 31.8333 91.6019 33.3371 91.6019 35.18Z" fill="#0154F7"/>
<path d="M120.865 43.805V29.2239L107.85 19.0215V43.805H120.865Z" fill="#0154F7"/>
<path d="M136.964 43.805V29.2239L124.156 19.0215V43.805H136.964Z" fill="#0154F7"/>
</svg>
