<svg width="122" height="50" viewBox="0 0 122 50" fill="none" xmlns="http://www.w3.org/2000/svg">
<path d="M0.123047 30.6487V0.483887H18.0682V30.634H0.123047V30.6487ZM15.894 23.6309L16.3556 20.2989L14.6877 20.1367L14.1813 22.7021C13.1389 23.2181 11.8581 23.4687 10.3242 23.4687C8.23933 23.4687 6.58628 22.82 5.38001 21.5079C4.15884 20.1957 3.56315 18.4707 3.56315 16.3182C3.56315 14.2247 4.15884 12.4997 5.33533 11.1433C6.51182 9.78692 8.06065 9.10873 9.98175 9.10873C10.9646 9.10873 11.7986 9.22667 12.4687 9.44782C13.1389 9.66897 13.7495 9.96384 14.3303 10.3472L14.8217 12.883L16.5194 12.7208L16.028 9.38885C15.3132 8.78438 14.4643 8.29785 13.4814 7.91452C12.4985 7.54594 11.2774 7.35427 9.83282 7.35427C8.12021 7.35427 6.64588 7.76709 5.40982 8.60745C4.17376 9.44782 3.20576 10.5536 2.52072 11.9247C1.83568 13.3106 1.49315 14.7996 1.49315 16.3919C1.49315 18.913 2.28244 21.0213 3.86101 22.7021C5.43959 24.3828 7.49471 25.2232 10.0413 25.2232C12.5432 25.2232 14.4941 24.6924 15.894 23.6309Z" fill="#B1B1B1"/>
<path d="M24.1592 30.6487V0.483887H31.8733V30.634H24.1592V30.6487ZM24.9782 24.9578H31.0692V23.4392H28.9694V6.60237H24.9485V8.12092H27.078V23.4392H24.9782V24.9578Z" fill="#B1B1B1"/>
<path d="M37.9648 30.6487V0.483887H51.5168V30.634H37.9648V30.6487ZM40.4221 13.9888L39.9902 16.731L41.5539 16.9227L42.0155 14.8734C42.6857 14.549 43.4452 14.3868 44.3387 14.3868C45.411 14.3868 46.1407 14.6522 46.513 15.183C46.8853 15.7137 47.064 16.4067 47.064 17.2618V18.3233C46.7364 18.2938 46.3939 18.2643 46.0216 18.2496C45.6492 18.2348 45.2919 18.2201 44.9344 18.2201C43.5941 18.2201 42.3134 18.456 41.122 18.9278C39.9306 19.3996 39.3349 20.3874 39.3349 21.8764C39.3349 23.1444 39.7371 24.0142 40.5561 24.486C41.3752 24.9725 42.1794 25.2084 42.9687 25.2084C43.9367 25.2084 44.7706 24.9578 45.4556 24.4565C46.1407 23.9552 46.6768 23.395 47.064 22.7463V22.8053C47.0938 24.4123 47.8235 25.2084 49.2532 25.2084C49.8042 25.2084 50.3254 25.0757 50.8169 24.8104L50.7871 23.5867C50.5488 23.6899 50.2807 23.7488 49.9829 23.7488C49.2978 23.7488 48.9553 23.3213 48.9553 22.4662V16.8195C48.9553 14.1657 47.5257 12.8388 44.6664 12.8388C43.8771 12.8388 43.1325 12.9272 42.4325 13.1042C41.7177 13.2958 41.0475 13.5907 40.4221 13.9888ZM47.0491 20.5053C46.9747 21.4784 46.5726 22.2598 45.8429 22.82C45.1131 23.395 44.3387 23.6751 43.5048 23.6751C42.9835 23.6751 42.4772 23.5277 42.0007 23.2476C41.5092 22.9674 41.2709 22.4367 41.2709 21.67C41.2709 20.7412 41.6432 20.1515 42.3581 19.8713C43.0878 19.5912 43.8919 19.4585 44.8004 19.4585C45.2025 19.4585 45.5897 19.4733 45.962 19.5175C46.3343 19.547 46.7066 19.5765 47.0342 19.5912V20.5053H47.0491Z" fill="#B1B1B1"/>
<path d="M57.6221 30.6487V0.483887H69.9379V30.634H57.6221V30.6487ZM68.6423 21.5226C68.6423 20.579 68.3891 19.8861 67.8828 19.429C67.3765 18.972 66.7659 18.6624 66.0213 18.4855C65.2767 18.3086 64.547 18.1611 63.8172 18.0432C63.0875 17.9252 62.4621 17.7336 61.9557 17.4829C61.4494 17.2323 61.1962 16.79 61.1962 16.156C61.1962 15.5516 61.4345 15.1093 61.9259 14.8144C62.4173 14.5195 63.0279 14.3868 63.7874 14.3868C64.6661 14.3868 65.4852 14.5785 66.2447 14.9766L66.5426 16.8932L68.1062 16.7015L67.8084 13.9298C67.302 13.6202 66.6915 13.3695 65.9617 13.1631C65.232 12.9567 64.4576 12.8388 63.6236 12.8388C62.5216 12.8388 61.509 13.1042 60.5707 13.6202C59.6325 14.1362 59.1709 15.0208 59.1709 16.2887C59.1709 17.2176 59.424 17.8957 59.9303 18.3233C60.4367 18.7656 61.0622 19.0605 61.8217 19.2374C62.5812 19.4143 63.3258 19.5617 64.0704 19.6944C64.815 19.8124 65.4405 20.0188 65.9468 20.2842C66.4532 20.5495 66.7063 21.0066 66.7063 21.67C66.7063 22.3482 66.3787 22.8495 65.7234 23.1739C65.0681 23.4982 64.3236 23.6604 63.4747 23.6604C62.5216 23.6604 61.6281 23.4687 60.809 23.0707L60.8835 21.4931L59.3793 21.3309L59.007 24.029C59.5283 24.3681 60.2133 24.6482 61.0473 24.8693C61.8812 25.0905 62.7152 25.2084 63.5641 25.2084C65.0086 25.2084 66.2149 24.8841 67.1829 24.2206C68.1509 23.5867 68.6423 22.6726 68.6423 21.5226Z" fill="#B1B1B1"/>
<path d="M76.0283 30.6487V0.483887H88.3441V30.634H76.0283V30.6487ZM87.0485 21.5226C87.0485 20.579 86.7953 19.8861 86.289 19.429C85.7827 18.972 85.1721 18.6624 84.4275 18.4855C83.6829 18.3086 82.9532 18.1611 82.2235 18.0432C81.4937 17.9252 80.8683 17.7336 80.3619 17.4829C79.8556 17.2323 79.6024 16.79 79.6024 16.156C79.6024 15.5516 79.8407 15.1093 80.3321 14.8144C80.8236 14.5195 81.4341 14.3868 82.1936 14.3868C83.0723 14.3868 83.8914 14.5785 84.6509 14.9766L84.9488 16.8932L86.5124 16.7015L86.2146 13.9298C85.7082 13.6202 85.0977 13.3695 84.3679 13.1631C83.6382 12.9567 82.8638 12.8388 82.0298 12.8388C80.9278 12.8388 79.9152 13.1042 78.977 13.6202C78.0387 14.1362 77.5771 15.0208 77.5771 16.2887C77.5771 17.2176 77.8303 17.8957 78.3366 18.3233C78.8429 18.7656 79.4684 19.0605 80.2279 19.2374C80.9874 19.4143 81.732 19.5617 82.4766 19.6944C83.2212 19.8124 83.8467 20.0188 84.353 20.2842C84.8594 20.5495 85.1125 21.0066 85.1125 21.67C85.1125 22.3482 84.785 22.8495 84.1297 23.1739C83.4744 23.4982 82.7298 23.6604 81.881 23.6604C80.9279 23.6604 80.0343 23.4687 79.2152 23.0707L79.2897 21.4931L77.7856 21.3309L77.4133 24.029C77.9345 24.3681 78.6196 24.6482 79.4535 24.8693C80.2875 25.0905 81.1215 25.2084 81.9703 25.2084C83.4149 25.2084 84.6211 24.8841 85.5891 24.2206C86.5571 23.5867 87.0485 22.6726 87.0485 21.5226Z" fill="#B1B1B1"/>
<path d="M94.4355 30.6487V0.483887H102.552V30.634H94.4355V30.6487ZM95.6269 24.9578H101.718V23.4392H99.618V13.0894H95.5823V14.608H97.7416V23.4392H95.6418V24.9578H95.6269ZM97.5332 7.59017V10.0228H99.5883V7.59017H97.5332Z" fill="#B1B1B1"/>
<path d="M108.643 30.6487V0.483887H121.614V30.634H108.643V30.6487ZM120.452 20.9624L118.829 20.6085C118.471 22.6136 117.384 23.6161 115.597 23.6161C114.406 23.6161 113.497 23.2181 112.872 22.4219C112.247 21.6258 111.934 20.5053 111.934 19.09C111.934 17.8073 112.217 16.7163 112.768 15.8022C113.319 14.8881 114.242 14.4458 115.523 14.4458C116.506 14.4458 117.369 14.667 118.084 15.1093L118.546 17.1143L120.11 16.9227L119.648 14.0625C119.037 13.6054 118.397 13.2811 117.727 13.1042C117.057 12.9272 116.327 12.8388 115.538 12.8388C113.676 12.8388 112.261 13.4875 111.338 14.7849C110.4 16.0823 109.938 17.5566 109.938 19.1932C109.938 21.095 110.43 22.5841 111.427 23.6309C112.41 24.6924 113.736 25.2232 115.389 25.2232C117.042 25.2232 118.263 24.7661 119.037 23.8668C119.812 22.9527 120.288 21.9944 120.452 20.9624Z" fill="#B1B1B1"/>
<path d="M7.88172 47.1166C7.5392 47.7358 7.03285 48.2223 6.37759 48.5614C5.70744 48.9005 4.91814 49.0774 3.99483 49.0774H1.3291V40.7622H3.99483C4.91814 40.7622 5.72233 40.9244 6.37759 41.2635C7.03285 41.6026 7.5392 42.0744 7.88172 42.7083C8.22425 43.3423 8.38805 44.0647 8.38805 44.9198C8.38805 45.7602 8.22425 46.4974 7.88172 47.1166ZM6.40736 47.2788C6.98816 46.7185 7.27114 45.9371 7.27114 44.9198C7.27114 43.9025 6.98816 43.1211 6.40736 42.5609C5.82656 42.0006 4.99259 41.7205 3.89057 41.7205H2.38648V48.1191H3.89057C4.99259 48.1191 5.82656 47.839 6.40736 47.2788Z" fill="#B1B1B1"/>
<path d="M13.9133 41.6321V44.4775H17.1003V45.3031H13.9133V48.2076H17.4577V49.0774H12.8262V40.7622H17.4577V41.6321H13.9133Z" fill="#B1B1B1"/>
<path d="M26.869 48.016C26.6754 48.3551 26.3924 48.6352 26.0052 48.8416C25.618 49.048 25.1415 49.166 24.5607 49.166C24.0097 49.166 23.5033 49.0628 23.0715 48.8711C22.6396 48.6647 22.2971 48.3993 22.029 48.0455C21.7759 47.6916 21.6269 47.2936 21.5822 46.8513H22.7438C22.7736 47.0872 22.8481 47.3231 22.9821 47.5442C23.1161 47.7654 23.3246 47.957 23.5778 48.1045C23.831 48.2519 24.1437 48.3256 24.516 48.3256C24.9926 48.3256 25.3649 48.2077 25.6181 47.9423C25.8712 47.6769 26.0052 47.3673 26.0052 46.9692C26.0052 46.6301 25.9159 46.35 25.7372 46.1436C25.5585 45.9372 25.3351 45.7603 25.0819 45.6423C24.8288 45.5244 24.4565 45.3917 24.0097 45.2443C23.4736 45.0673 23.0566 44.9052 22.729 44.7577C22.4013 44.6103 22.1333 44.3744 21.9099 44.0648C21.6865 43.7552 21.5674 43.3571 21.5674 42.8558C21.5674 42.4283 21.6716 42.045 21.8801 41.7059C22.0886 41.3815 22.3864 41.1161 22.7885 40.9392C23.1757 40.7623 23.6523 40.6738 24.1735 40.6738C24.9926 40.6738 25.6627 40.8655 26.1393 41.2636C26.6307 41.6616 26.8988 42.1629 26.9881 42.7821H25.8265C25.767 42.4578 25.5883 42.1629 25.3202 41.9123C25.0373 41.6616 24.6649 41.5289 24.1884 41.5289C23.7565 41.5289 23.3991 41.6469 23.146 41.868C22.8779 42.0892 22.7587 42.4135 22.7587 42.8116C22.7587 43.136 22.8481 43.4013 23.0119 43.593C23.1906 43.7994 23.3991 43.9468 23.6523 44.0648C23.9055 44.1827 24.2628 44.3007 24.6947 44.4481C25.2308 44.625 25.6627 44.7872 26.0052 44.9494C26.3329 45.1116 26.6158 45.3475 26.8392 45.6571C27.0626 45.9667 27.1817 46.3942 27.1817 46.925C27.152 47.3083 27.0626 47.6769 26.869 48.016Z" fill="#B1B1B1"/>
<path d="M32.677 40.7622V49.0774H31.5898V40.7622H32.677Z" fill="#B1B1B1"/>
<path d="M43.6676 41.3965C44.3378 41.883 44.7845 42.5317 45.0079 43.3573H43.8612C43.6676 42.8561 43.3251 42.4433 42.8634 42.1484C42.4018 41.8388 41.8508 41.6913 41.2104 41.6913C40.6445 41.6913 40.1232 41.824 39.6765 42.0894C39.2297 42.3548 38.8723 42.7234 38.6043 43.2099C38.3511 43.6964 38.217 44.2714 38.217 44.9349C38.217 45.6131 38.3511 46.2028 38.6043 46.6893C38.8574 47.1759 39.2297 47.5592 39.6914 47.8246C40.153 48.0899 40.6892 48.2226 41.2997 48.2226C41.821 48.2226 42.2826 48.1047 42.7145 47.8983C43.1464 47.6771 43.4889 47.3528 43.7718 46.94C44.0548 46.5272 44.2037 46.0259 44.2633 45.4656H40.9572V44.6695H45.1717V45.6573C45.0972 46.3207 44.8888 46.9105 44.5462 47.456C44.2037 48.0015 43.7421 48.4143 43.1613 48.7239C42.5805 49.0335 41.9252 49.1957 41.1806 49.1957C40.3764 49.1957 39.6616 49.0188 39.0361 48.6649C38.4106 48.3111 37.9341 47.8098 37.5915 47.1611C37.249 46.5272 37.0703 45.79 37.0703 44.9644C37.0703 44.1387 37.249 43.4016 37.5915 42.7676C37.9341 42.1336 38.4255 41.6176 39.0361 41.2638C39.6467 40.9099 40.3615 40.7183 41.1657 40.7183C42.1784 40.6888 42.9975 40.9247 43.6676 41.3965Z" fill="#B1B1B1"/>
<path d="M56.1617 49.0774H55.0746L50.7111 42.5019V49.0774H49.624V40.7622H50.7111L55.0746 47.3377V40.7622H56.1617V49.0774Z" fill="#B1B1B1"/>
<path d="M71.829 48.016C71.6354 48.3551 71.3524 48.6352 70.9652 48.8416C70.578 49.048 70.1015 49.166 69.5207 49.166C68.9697 49.166 68.4633 49.0628 68.0315 48.8711C67.5996 48.6647 67.2571 48.3993 66.989 48.0455C66.7358 47.6916 66.5869 47.2936 66.5423 46.8513H67.7038C67.7336 47.0872 67.8081 47.3231 67.9421 47.5442C68.0762 47.7654 68.2846 47.957 68.5378 48.1045C68.7909 48.2519 69.1037 48.3256 69.476 48.3256C69.9525 48.3256 70.3248 48.2077 70.578 47.9423C70.8312 47.6769 70.9652 47.3673 70.9652 46.9692C70.9652 46.6301 70.8759 46.35 70.6972 46.1436C70.5184 45.9372 70.2951 45.7603 70.0419 45.6423C69.7887 45.5244 69.4165 45.3917 68.9697 45.2443C68.4336 45.0673 68.0165 44.9052 67.6889 44.7577C67.3613 44.6103 67.0932 44.3744 66.8698 44.0648C66.6465 43.7552 66.5273 43.3571 66.5273 42.8558C66.5273 42.4283 66.6315 42.045 66.84 41.7059C67.0485 41.3815 67.3464 41.1161 67.7485 40.9392C68.1357 40.7623 68.6123 40.6738 69.1335 40.6738C69.9526 40.6738 70.6227 40.8655 71.0993 41.2636C71.5907 41.6616 71.8588 42.1629 71.9481 42.7821H70.7865C70.7269 42.4578 70.5482 42.1629 70.2801 41.9123C69.9972 41.6616 69.6249 41.5289 69.1484 41.5289C68.7165 41.5289 68.3591 41.6469 68.1059 41.868C67.8379 42.0892 67.7187 42.4135 67.7187 42.8116C67.7187 43.136 67.808 43.4013 67.9718 43.593C68.1506 43.7994 68.359 43.9468 68.6122 44.0648C68.8654 44.1827 69.2228 44.3007 69.6547 44.4481C70.1908 44.625 70.6227 44.7872 70.9652 44.9494C71.2928 45.1116 71.5758 45.3475 71.7992 45.6571C72.0225 45.9667 72.1417 46.3942 72.1417 46.925C72.1119 47.3083 72.0226 47.6769 71.829 48.016Z" fill="#B1B1B1"/>
<path d="M81.7021 40.7622V41.6321H79.3342V49.0774H78.2322V41.6321H75.8643V40.7622H81.7021Z" fill="#B1B1B1"/>
<path d="M86.7663 40.7622V45.7454C86.7663 46.5563 86.945 47.1608 87.3173 47.5589C87.6896 47.9422 88.1811 48.1486 88.8363 48.1486C89.4767 48.1486 89.9681 47.9569 90.3255 47.5589C90.683 47.1608 90.8616 46.5711 90.8616 45.7602V40.7769H91.9488V45.7602C91.9488 46.8954 91.6659 47.7505 91.1 48.3108C90.5341 48.8858 89.7745 49.1659 88.8214 49.1659C87.8832 49.1659 87.1238 48.8858 86.5579 48.3108C85.9919 47.7358 85.709 46.8954 85.709 45.7602V40.7769H86.7663V40.7622Z" fill="#B1B1B1"/>
<path d="M103.162 47.1166C102.819 47.7358 102.313 48.2223 101.658 48.5614C100.988 48.9005 100.198 49.0774 99.2751 49.0774H96.6094V40.7622H99.2751C100.198 40.7622 101.003 40.9244 101.658 41.2635C102.313 41.6026 102.819 42.0744 103.162 42.7083C103.504 43.3423 103.668 44.0647 103.668 44.9198C103.668 45.7602 103.504 46.4974 103.162 47.1166ZM101.702 47.2788C102.283 46.7185 102.566 45.9371 102.566 44.9198C102.566 43.9025 102.283 43.1211 101.702 42.5609C101.122 42.0006 100.288 41.7205 99.1857 41.7205H97.6816V48.1191H99.1857C100.273 48.1191 101.122 47.839 101.702 47.2788Z" fill="#B1B1B1"/>
<path d="M109.208 40.7622V49.0774H108.121V40.7622H109.208Z" fill="#B1B1B1"/>
<path d="M119.871 41.2047C120.496 41.5733 120.988 42.0745 121.345 42.7232C121.702 43.3719 121.881 44.1091 121.881 44.92C121.881 45.7309 121.702 46.468 121.345 47.1167C120.988 47.7655 120.496 48.2667 119.871 48.6353C119.245 49.0039 118.545 49.1808 117.771 49.1808C116.996 49.1808 116.282 49.0039 115.656 48.6353C115.031 48.2667 114.524 47.7655 114.167 47.1167C113.81 46.468 113.631 45.7309 113.631 44.92C113.631 44.1091 113.81 43.3719 114.167 42.7232C114.524 42.0745 115.016 41.5733 115.656 41.2047C116.297 40.8361 116.996 40.6592 117.771 40.6592C118.545 40.6592 119.245 40.8361 119.871 41.2047ZM116.207 42.0598C115.746 42.3252 115.388 42.6938 115.135 43.195C114.882 43.6816 114.748 44.2565 114.748 44.92C114.748 45.5687 114.882 46.1437 115.135 46.645C115.388 47.1462 115.746 47.5148 116.207 47.7802C116.669 48.0456 117.175 48.1783 117.756 48.1783C118.322 48.1783 118.843 48.0456 119.305 47.7802C119.766 47.5148 120.124 47.1315 120.377 46.645C120.63 46.1584 120.764 45.5834 120.764 44.9347C120.764 44.2713 120.63 43.6963 120.377 43.2098C120.124 42.7232 119.766 42.3399 119.305 42.0745C118.843 41.8092 118.337 41.6765 117.756 41.6765C117.19 41.6617 116.669 41.7944 116.207 42.0598Z" fill="#B1B1B1"/>
</svg>
