<svg width="172" height="45" viewBox="0 0 172 45" fill="none" xmlns="http://www.w3.org/2000/svg">
<path d="M37.0148 44.9303H9.03606C4.4382 44.9303 0.711914 41.2413 0.711914 36.6894V8.99043C0.711914 4.43854 4.4382 0.749512 9.03606 0.749512H37.0148C41.6127 0.749512 45.339 4.43854 45.339 8.99043V36.6894C45.339 41.2413 41.6127 44.9303 37.0148 44.9303Z" fill="#B1B1B1"/>
<path d="M31.0648 23.2464C31.8606 24.2343 32.2648 25.3848 32.2648 26.6853C32.2648 28.5986 31.6206 30.0992 30.3322 31.1622C29.0437 32.2251 27.1995 32.7754 24.7996 32.7754H14.3154V10.4536H24.5469C26.8459 10.4536 28.6143 10.9538 29.8648 11.9417C31.1153 12.9296 31.7469 14.3427 31.7469 16.1685C31.7469 17.519 31.3806 18.632 30.6606 19.5324C29.9406 20.4328 28.9932 21.008 27.8185 21.2831C29.1953 21.6082 30.269 22.2585 31.0648 23.2464ZM19.7596 19.5824H23.3343C25.229 19.5824 26.1764 18.7821 26.1764 17.1814C26.1764 15.5807 25.2038 14.7804 23.2712 14.7804H19.7596V19.5824ZM26.6816 25.935C26.6816 25.1347 26.4164 24.5094 25.8859 24.0593C25.3554 23.6091 24.5975 23.384 23.6248 23.384H19.7722V28.3986H23.6627C25.6711 28.3861 26.6816 27.5732 26.6816 25.935Z" fill="white"/>
<path d="M71.1955 32.7754L66.3197 24.3469H65.0818V32.7754H59.625V10.4536H68.9344C70.7154 10.4536 72.2312 10.7537 73.4565 11.3665C74.6944 11.9792 75.6165 12.8171 76.2354 13.88C76.8544 14.943 77.1575 16.156 77.1575 17.5316C77.1575 19.1572 76.7028 20.5328 75.8059 21.6708C74.8965 22.8087 73.5954 23.5841 71.8649 24.0092L77.2207 32.7879H71.1955V32.7754ZM65.0818 20.6578H68.4544C69.5407 20.6578 70.3365 20.4202 70.8418 19.9451C71.347 19.4699 71.6123 18.7696 71.6123 17.8442C71.6123 16.9563 71.347 16.2685 70.8291 15.7558C70.3112 15.2556 69.5154 14.993 68.4544 14.993H65.0818V20.6578Z" fill="#B1B1B1"/>
<path d="M101.84 28.7114H93.3898L91.9876 32.7881H86.2529L94.5139 10.6289H100.792L109.053 32.7881H103.255L101.84 28.7114ZM100.438 24.5972L97.6339 16.3938L94.7918 24.5972H100.438Z" fill="#B1B1B1"/>
<path d="M139.153 32.7754H133.696L124.576 19.0697V32.7754H119.119V10.4536H124.576L133.696 24.2843V10.4536H139.153V32.7754Z" fill="#B1B1B1"/>
<path d="M169.747 27.3983C168.799 29.0865 167.435 30.4121 165.667 31.3625C163.886 32.3129 161.801 32.7881 159.401 32.7881H150.888V10.4663H159.401C161.827 10.4663 163.923 10.929 165.679 11.8544C167.448 12.7798 168.799 14.0803 169.747 15.7685C170.694 17.4567 171.161 19.3825 171.161 21.5834C171.161 23.7593 170.681 25.6976 169.747 27.3983ZM163.873 26.2728C165.048 25.1599 165.641 23.5842 165.641 21.5709C165.641 19.5451 165.048 17.9819 163.873 16.869C162.698 15.756 161.043 15.1933 158.909 15.1933H156.332V27.9486H158.909C161.043 27.9486 162.698 27.3983 163.873 26.2728Z" fill="#B1B1B1"/>
</svg>
