<svg width="157" height="107" viewBox="0 0 157 107" fill="none" xmlns="http://www.w3.org/2000/svg">
<path d="M28 15.0042V35.825C28 43.6708 33.5458 48.8667 40.8458 48.8667C42.5081 48.8916 44.1583 48.5809 45.6976 47.953C47.2369 47.3251 48.6336 46.393 49.8042 45.2125V48.3083H54.8542V15H49.7625V35.5583C49.7625 40.8292 46.1375 44.3917 41.45 44.4C36.7042 44.3917 33.1292 40.925 33.1292 35.5583V15L28 15.0042ZM58.675 15.0042V48.3083H63.5208V45.2583C64.6796 46.4171 66.0555 47.3359 67.5698 47.9622C69.0841 48.5885 70.7071 48.91 72.3458 48.9083C74.0382 48.9517 75.7222 48.6559 77.2985 48.0382C78.8747 47.4205 80.3114 46.4935 81.5237 45.3118C82.736 44.1302 83.6996 42.7178 84.3574 41.1579C85.0153 39.598 85.3542 37.9221 85.3542 36.2292C85.3542 34.5362 85.0153 32.8604 84.3574 31.3005C83.6996 29.7406 82.736 28.3282 81.5237 27.1465C80.3114 25.9648 78.8747 25.0378 77.2985 24.4202C75.7222 23.8025 74.0382 23.5066 72.3458 23.55C70.714 23.5489 69.0981 23.8708 67.5913 24.4973C66.0845 25.1237 64.7167 26.0423 63.5667 27.2V15.0042H58.675ZM99.8667 23.5708C98.2078 23.5637 96.564 23.8844 95.0295 24.5145C93.495 25.1446 92.1001 26.0717 90.925 27.2426C89.7499 28.4134 88.8178 29.8049 88.1821 31.3371C87.5464 32.8693 87.2197 34.512 87.2208 36.1708C87.2208 43.4083 92.9417 48.825 100.358 48.825C102.418 48.8671 104.458 48.4195 106.311 47.5191C108.164 46.6187 109.777 45.2912 111.017 43.6458L107.475 41.0708C106.668 42.2 105.599 43.1156 104.359 43.7385C103.119 44.3614 101.746 44.6728 100.358 44.6458C98.391 44.6703 96.4802 43.9876 94.9738 42.722C93.4673 41.4564 92.4653 39.6921 92.15 37.75H112.221V36.1708C112.221 28.9458 106.996 23.5708 99.8708 23.5708H99.8667ZM125.546 23.8458C124.396 23.8358 123.263 24.1247 122.257 24.6842C121.252 25.2437 120.41 26.0546 119.812 27.0375V24.0417H114.967V48.3083H119.858V34.5083C119.858 30.75 122.187 28.325 125.387 28.325H127.45V23.8542L125.546 23.8458ZM99.7 27.7792C101.497 27.7548 103.245 28.3609 104.641 29.4921C106.037 30.6233 106.993 32.2081 107.342 33.9708H92.2667C92.6084 32.2432 93.5333 30.6854 94.8865 29.5582C96.2397 28.4311 97.939 27.803 99.7 27.7792ZM71.9542 27.8042C73.06 27.8036 74.1551 28.0209 75.177 28.4436C76.1989 28.8663 77.1275 29.4861 77.9098 30.2676C78.6921 31.0492 79.3129 31.9772 79.7366 32.9986C80.1603 34.0201 80.3786 35.115 80.3792 36.2208C80.3797 37.3267 80.1624 38.4218 79.7398 39.4437C79.3171 40.4655 78.6973 41.3941 77.9157 42.1765C77.1341 42.9588 76.2062 43.5795 75.1847 44.0032C74.1632 44.4269 73.0683 44.6453 71.9625 44.6458C69.7439 44.6275 67.6227 43.7317 66.0625 42.1542C64.4988 40.579 63.6224 38.4487 63.625 36.2292C63.6213 34.0102 64.4961 31.88 66.0583 30.3042C67.6161 28.7246 69.7358 27.8258 71.9542 27.8042ZM28 57.1792V90.3917H51.8417V84.6958H34.4417V76.4875H51.375V71.0083H34.4417V62.8625H51.8417V57.175L28 57.1792ZM88.6667 58.8875V65.9083H83.875V71.4833H88.6833V84.5792C88.6833 87.8833 91.0667 90.5 95.35 90.5H102.196L102.171 84.925H97.4167C95.9667 84.925 95.0333 84.3 95.0333 82.9917V71.4583H102.167V65.9083H95.0583V58.8833L88.6667 58.8875ZM66.5958 65.25C64.8828 65.2454 63.1859 65.5813 61.6037 66.2381C60.0216 66.895 58.5857 67.8597 57.3796 69.0762C56.1735 70.2927 55.2212 71.7368 54.578 73.3245C53.9347 74.9123 53.6135 76.612 53.6328 78.325C53.6521 80.0379 54.0116 81.73 54.6905 83.3028C55.3694 84.8756 56.3541 86.2978 57.5873 87.4869C58.8206 88.6759 60.2778 89.6079 61.8744 90.2289C63.4709 90.8499 65.175 91.1474 66.8875 91.1042C69.7863 91.1344 72.605 90.1531 74.8583 88.3292V90.5458H81.1792V65.9083H74.8917V68.1C72.6384 66.247 69.8089 65.239 66.8917 65.25H66.6H66.5958ZM115.642 65.2792C109.037 65.2792 104.392 67.9625 104.392 73.1375C104.392 76.7208 106.946 79.0583 112.458 80.2L118.492 81.5667C120.867 82.025 121.5 82.6458 121.5 83.6083C121.5 85.1542 119.675 86.1208 116.804 86.1208C113.154 86.1208 111.062 85.3292 110.25 82.5875H103.863C104.779 87.7167 108.683 91.1292 116.567 91.1292H116.575C123.875 91.1292 128 87.7167 128 82.9917C128 79.6333 125.562 77.125 120.462 76.0458L115.071 74.9625C111.942 74.3958 110.954 73.8208 110.954 72.6875C110.954 71.2 112.458 70.2917 115.246 70.2917C118.254 70.2917 120.462 71.0917 121.1 73.8208H127.425C127.067 68.7 123.3 65.2792 115.646 65.2792H115.642ZM67.4458 70.4875C71.6542 70.5292 75.025 73.975 74.975 78.1833C74.9762 79.1778 74.7796 80.1625 74.3967 81.0803C74.0138 81.9981 73.4522 82.8305 72.7446 83.5292C72.0369 84.2279 71.1974 84.7789 70.2749 85.1502C69.3523 85.5214 68.3652 85.7055 67.3708 85.6917C65.3552 85.6817 63.426 84.8715 62.0078 83.4392C60.5896 82.0068 59.7984 80.0698 59.8083 78.0542C59.8183 76.0385 60.6285 74.1094 62.0608 72.6911C63.4931 71.2729 65.4302 70.4817 67.4458 70.4917V70.4875Z" fill="#757B8A"/>
</svg>
