<svg width="157" height="107" viewBox="0 0 157 107" fill="none" xmlns="http://www.w3.org/2000/svg">
<path fill-rule="evenodd" clip-rule="evenodd" d="M49.6432 29H39.8153V54.9927C39.8153 58.3718 37.5962 60.3786 34.004 60.3786C30.4134 60.3786 28.5108 57.7381 28.5108 54.8854V50.2382H19V54.9927C19 59.8499 20.4788 68.5195 34.1097 68.5195C47.739 68.5195 49.6432 59.2179 49.6432 54.7829V29ZM110.087 77.2891V40.8323H119.179V42.3111C119.179 44.2837 119.974 43.4703 120.615 42.7015L120.618 42.6977C120.757 42.5308 122.788 40.0929 127.312 40.0929C131.862 40.0929 138.94 43.2621 138.94 54.464C138.94 63.1288 134.717 69.4679 127.425 69.4679C123.406 69.4679 121.083 67.8858 120.552 67.2473C120.02 66.6176 119.281 66.5077 119.281 67.2473V77.2891H110.087ZM119.069 54.783C118.971 60.1689 120.135 63.0215 124.574 63.0215C129.007 63.0215 129.643 58.1621 129.643 54.4641C129.643 50.7639 128.802 47.1717 124.145 47.1717C121.288 47.1717 119.179 49.3916 119.069 54.783ZM70.1963 50.8725C70.1963 48.2279 68.7199 45.6924 65.3384 45.6924C62.0627 45.6924 60.8994 48.0148 60.8994 50.8725H70.1963ZM78.8689 56.3647C78.8689 42.7331 72.1092 39.7754 64.3912 39.7754C55.4091 39.7754 51.3965 48.0139 51.3965 55.0966C51.3965 62.1768 55.9411 69.0455 65.2372 69.0455C73.3757 69.1504 78.7656 63.8671 78.7656 59.956H69.7811C69.7811 59.956 68.7252 62.494 65.5544 62.494C62.3845 62.494 60.59 60.6971 60.59 56.3647H78.8689ZM99.4185 50.8725C99.4185 48.2279 97.9404 45.6924 94.559 45.6924C91.2849 45.6924 90.1191 48.0148 90.1191 50.8725H99.4185ZM108.088 56.3647C108.088 42.7331 101.33 39.7754 93.6124 39.7754C84.6328 39.7754 80.6152 48.0139 80.6152 55.0966C80.6152 62.1768 85.1599 69.0455 94.4609 69.0455C102.597 69.1504 107.988 63.8671 107.988 59.956H99.0031C99.0031 59.956 97.9456 62.494 94.7781 62.494C91.6056 62.494 89.8095 60.6971 89.8095 56.3647H108.088ZM132.923 72.9186C132.923 71.4747 134.098 70.3018 135.547 70.3018C136.991 70.3018 138.164 71.4747 138.164 72.9186C138.164 74.36 136.991 75.5403 135.547 75.5403C134.098 75.5403 132.923 74.36 132.923 72.9186ZM135.546 75.8449C133.927 75.8449 132.619 74.5336 132.619 72.918C132.619 71.3025 133.927 69.9912 135.546 69.9912C137.154 69.9912 138.469 71.3025 138.469 72.918C138.469 74.5336 137.154 75.8449 135.546 75.8449Z" fill="#0154F7"/>
</svg>
