<svg width="157" height="107" viewBox="0 0 157 107" fill="none" xmlns="http://www.w3.org/2000/svg">
<path d="M48.9236 32.8819L40.8036 34.6071L40.7661 61.3113C40.7661 66.2433 44.4791 69.4313 49.4112 69.4313C52.1491 69.4313 54.1556 68.925 55.2621 68.3249V61.9864C54.1932 62.4177 48.9423 63.9555 48.9423 59.0422V47.1903H55.2621V40.1017H48.9423L48.9236 32.8819ZM65.6324 42.5584L65.1261 40.1017H57.925V68.8312H66.2325V49.497C68.2016 46.909 71.5209 47.4154 72.5898 47.7529V40.1017C71.4646 39.7079 67.5827 38.9766 65.6324 42.5584ZM82.9414 29L74.5776 30.7815V37.5701L82.9414 35.7886V29ZM26.4013 48.5593C26.4013 47.2654 27.489 46.759 29.233 46.7403C31.7647 46.7403 34.9902 47.5091 37.5218 48.8781V41.0394C34.8869 40.0114 32.08 39.4958 29.2518 39.5204C22.5007 39.5204 18 43.0459 18 48.9344C18 58.1608 30.6582 56.6606 30.6582 60.6362C30.6582 62.1739 29.3268 62.6803 27.4702 62.6803C24.7135 62.6803 21.1505 61.5363 18.3563 60.0173V67.5185C21.4505 68.85 24.5823 69.4126 27.4515 69.4126C34.3713 69.4126 39.1346 66.4496 39.1346 60.4487C39.1346 50.5284 26.4013 52.3099 26.4013 48.5593ZM138 54.804C138 46.2715 133.874 39.5391 125.961 39.5391C118.047 39.5391 113.227 46.2714 113.227 54.7478C113.227 64.7806 118.91 69.4126 127.011 69.4126C130.986 69.4126 133.968 68.5124 136.237 67.256V60.9925C133.968 62.1364 131.361 62.8303 128.061 62.8303C124.817 62.8303 121.966 61.6864 121.591 57.7858H137.887C137.925 57.3544 138 55.6104 138 54.804ZM121.516 51.6535C121.516 47.903 123.823 46.3277 125.904 46.3277C127.948 46.3277 130.124 47.903 130.124 51.6535H121.516ZM100.344 39.5391C97.0811 39.5391 94.9808 41.0769 93.8181 42.1458L93.3868 40.083H86.0544V78.489L94.3807 76.7262L94.3994 67.3122C95.5996 68.1936 97.3812 69.4126 100.288 69.4126C106.251 69.4126 111.69 65.0619 111.69 54.4852C111.708 44.8087 106.195 39.5391 100.344 39.5391ZM98.3563 62.5115C96.406 62.5115 95.2433 61.7989 94.437 60.9362L94.3807 48.5593C95.2433 47.6029 96.4435 46.9091 98.3563 46.9091C101.394 46.9091 103.495 50.3221 103.495 54.6728C103.513 59.1547 101.451 62.5115 98.3563 62.5115ZM74.5963 68.8312H82.9602V40.1017H74.5963V68.8312Z" fill="#757B8A"/>
</svg>
