<svg width="157" height="107" viewBox="0 0 157 107" fill="none" xmlns="http://www.w3.org/2000/svg">
<path fill-rule="evenodd" clip-rule="evenodd" d="M22.2081 42.5234H18V65.4729H22.2081V55.9273H31.0833V65.4729H35.2968V42.5234H31.0833V51.8726H22.2081V42.5234ZM45.1424 61.4822C47.0631 61.4822 48.6283 59.9188 48.6283 57.9977V48.1172H52.6176V57.9977C52.6176 62.1198 49.2638 65.4727 45.1424 65.4727C41.0201 65.4727 37.666 62.1198 37.666 57.9977V48.1172H41.6568V57.9977C41.6568 59.9188 43.221 61.4822 45.1424 61.4822ZM63.7581 48.2331C61.7785 48.2331 60.3967 48.8075 59.0623 50.1175V42.5234H55.0586V56.5972C55.0586 61.8651 58.8674 65.4729 63.1464 65.4729C67.9035 65.4729 72.0716 61.8008 72.0716 56.8532C72.0716 51.9683 68.2281 48.2331 63.7581 48.2331ZM59.0703 56.8534C59.0703 59.5034 61.1449 61.7692 63.8578 61.7692C66.1566 61.7692 68.2324 59.5034 68.2324 56.8534C68.2324 54.203 66.1566 51.9365 63.8578 51.9365C61.1449 51.9365 59.0703 54.203 59.0703 56.8534ZM78.796 49.242C78.796 47.2294 80.137 46.5913 81.6051 46.5913C82.787 46.5913 84.351 47.4851 85.3717 48.5709L87.9889 45.5063C86.6809 43.7506 84.0316 42.5371 81.8606 42.5371C77.5184 42.5371 74.3896 45.0593 74.3896 49.242C74.3896 53.6794 77.5131 54.774 80.1867 55.7109C82.1871 56.412 83.9357 57.0248 83.9357 58.8835C83.9357 60.2229 82.6272 61.4052 81.1275 61.4052C78.9807 61.4052 78.1515 60.4568 77.2043 59.3734C77.1087 59.2642 77.012 59.1535 76.9126 59.0424L74.0068 62.0429C75.8596 64.3098 78.1574 65.4597 80.9034 65.4597C85.0214 65.4597 88.3418 62.9056 88.3418 58.9144C88.3418 53.7165 84.8704 52.6285 82.1144 51.7647C80.3002 51.1961 78.796 50.7247 78.796 49.242ZM90.7939 56.8825C90.7939 51.6134 94.6032 48.0078 98.8818 48.0078C103.638 48.0078 107.807 51.6789 107.807 56.6272C107.807 61.5121 103.963 65.2469 99.4935 65.2469C97.5132 65.2469 96.1321 64.6715 94.7974 63.3625V70.9926H90.7939V56.8825ZM99.5932 61.5448C96.8805 61.5448 94.8057 59.276 94.8057 56.6279C94.8057 53.9774 96.8805 51.7109 99.5932 51.7109C101.891 51.7109 103.967 53.9774 103.967 56.6279C103.967 59.276 101.891 61.5448 99.5932 61.5448ZM134.246 59.1835C134.246 60.7485 134.916 61.7696 137.277 61.7696C137.726 61.7696 138.236 61.7378 138.683 61.7069L137.694 65.346C137.31 65.4405 136.607 65.4735 136.096 65.4735C132.682 65.4735 130.192 63.6535 130.192 60.0456V45.9345L134.246 44.1152V48.7448H137.916V52.2561H134.246V59.1835Z" fill="#757B8A"/>
<path fill-rule="evenodd" clip-rule="evenodd" d="M123.522 49.2841C124.872 50.0811 125.952 51.1397 126.719 52.4602C127.473 53.7711 127.832 55.2019 127.832 56.7527V56.8315C127.832 58.408 127.386 59.8409 126.576 61.1379C125.769 62.4313 124.702 63.4444 123.339 64.1853C122.045 64.8863 120.669 65.2291 119.209 65.2291H118.968C117.648 65.2291 116.442 64.9412 115.349 64.4689C114.795 64.2296 114.28 63.9521 113.803 63.6226L110.323 67.103C110.405 67.3647 110.449 67.64 110.449 67.9222C110.45 68.6463 110.163 69.3411 109.65 69.852C109.139 70.3658 108.443 70.6539 107.719 70.6521C106.994 70.654 106.299 70.3659 105.789 69.852C105.273 69.3365 104.989 68.6513 104.989 67.9222C104.986 67.1978 105.274 66.5026 105.787 65.9916C106.537 65.2377 107.658 64.9918 108.655 65.3627L112.022 61.9876C111.465 61.3005 111.015 60.5405 110.707 59.7047C110.358 58.7474 110.153 57.7284 110.153 56.649V56.3282C110.153 54.7906 110.648 53.381 111.458 52.0998C111.857 51.4714 112.357 50.9113 112.893 50.4189L102.748 43.1096L102.01 42.5495C101.479 42.8696 100.863 43.0644 100.197 43.0644C98.2458 43.0644 96.665 41.4827 96.665 39.5321C96.665 37.5812 98.2441 36 100.196 36C102.147 36 103.727 37.5812 103.727 39.5321C103.727 39.8574 103.663 40.1657 103.58 40.4648C106.254 42.4932 110.377 45.6256 112.987 47.608C113.792 48.2194 114.453 48.7214 114.883 49.0479C115.775 48.5963 116.753 48.3023 117.696 48.1661V43.9683C116.518 43.4679 115.828 42.3603 115.828 41.068C115.828 39.3067 117.265 37.8794 119.027 37.8794C120.787 37.8794 122.199 39.3067 122.199 41.068C122.199 42.3603 121.468 43.4679 120.289 43.9683V48.1642C121.468 48.3243 122.514 48.6969 123.522 49.2841ZM119.21 61.4582C120.437 61.4582 121.523 60.8116 122.468 59.7619C123.29 58.8575 123.701 57.8611 123.701 56.7852C123.701 56.624 123.695 56.4552 123.682 56.2904C123.599 55.4977 123.343 54.77 122.911 54.0954C122.468 53.421 121.895 52.9083 121.194 52.533C120.506 52.1811 119.778 52.0293 119.008 52.0293H118.929C118.08 52.0293 117.317 52.2601 116.604 52.7306C115.877 53.2044 115.33 53.8003 114.925 54.5666C114.547 55.2676 114.396 56.0099 114.396 56.7928V57.0346C114.396 57.8309 114.66 58.5819 115.147 59.2697C115.618 59.9705 116.193 60.524 116.95 60.912C117.621 61.2644 118.307 61.4582 119.008 61.4582H119.21Z" fill="#757B8A"/>
</svg>
