<svg width="157" height="107" viewBox="0 0 157 107" fill="none" xmlns="http://www.w3.org/2000/svg">
<path d="M43.679 56.5589C42.0057 63.2717 35.2079 67.3552 28.4951 65.6818C21.7858 64.0085 17.7012 57.2103 19.3752 50.4991C21.0478 43.7862 27.8452 39.7016 34.5557 41.3749C41.2677 43.0482 45.3519 49.8472 43.6786 56.5589H43.679Z" fill="#757B8A"/>
<path fill-rule="evenodd" clip-rule="evenodd" d="M37.0507 51.7433C37.3001 50.0763 36.0308 49.1801 34.2952 48.5823L34.8582 46.324L33.4836 45.9815L32.9355 48.1802C32.5694 48.0902 32.2024 48.0038 31.8346 47.921L32.3866 45.7078L31.0124 45.3652L30.4494 47.6227C30.1503 47.5546 29.8567 47.4872 29.5716 47.4164L29.5732 47.4093L27.6775 46.936L27.3118 48.4041C27.3118 48.4041 28.3317 48.6379 28.3102 48.6524C28.8669 48.7913 28.9675 49.1598 28.9507 49.4518L28.3094 52.0244C28.3478 52.0342 28.3975 52.0487 28.4523 52.0702L28.3071 52.0342L27.4082 55.6381C27.34 55.8072 27.1674 56.0609 26.7778 55.9646C26.7919 55.9846 25.7791 55.7152 25.7791 55.7152L25.0967 57.2891L26.8855 57.7354C27.0905 57.7865 27.293 57.8393 27.4934 57.8915L27.4935 57.8915C27.6183 57.9241 27.7422 57.9564 27.8654 57.9879L27.2966 60.272L28.6696 60.6146L29.2326 58.3544C29.6077 58.4566 29.9718 58.5501 30.328 58.639L29.7666 60.8882L31.1408 61.2308L31.7101 58.951C34.054 59.3946 35.8166 59.2157 36.5585 57.0961C37.1564 55.3891 36.5288 54.4044 35.2955 53.762C36.1936 53.5545 36.8702 52.9637 37.0507 51.7433ZM33.9094 56.1471C33.5194 57.714 31.0657 57.0653 29.9449 56.7691L29.9449 56.769C29.8447 56.7426 29.7552 56.7189 29.6787 56.6999L30.4335 53.6739C30.5275 53.6974 30.6423 53.7232 30.7724 53.7524L30.7725 53.7524C31.933 54.0131 34.3086 54.5467 33.9094 56.1471ZM31.0048 52.3485C31.94 52.598 33.9797 53.1424 34.335 51.7194V51.719C34.6978 50.2631 32.7153 49.8242 31.7471 49.6099C31.6382 49.5857 31.5421 49.5645 31.4637 49.5449L30.7793 52.2894C30.844 52.3055 30.9198 52.3258 31.0048 52.3485Z" fill="#757B8A"/>
<path fill-rule="evenodd" clip-rule="evenodd" d="M55.7133 48.5808C56.7293 48.5808 57.607 48.7629 58.3442 49.1203C59.0858 49.4813 59.6973 49.9675 60.1879 50.5791C60.6718 51.1937 61.032 51.9122 61.2645 52.7355C61.4955 53.5616 61.6114 54.4488 61.6114 55.3986C61.6114 56.8589 61.344 58.237 60.8041 59.5368C60.2638 60.8386 59.5317 61.9681 58.5999 62.9312C57.6689 63.8932 56.5695 64.6511 55.3018 65.2114C54.0361 65.772 52.6599 66.0523 51.1824 66.0523C50.9913 66.0523 50.6554 66.0469 50.1809 66.0371C49.7064 66.0273 49.161 65.9783 48.5502 65.8961C47.8937 65.8024 47.2426 65.6746 46.5993 65.5132C45.9262 65.3507 45.2722 65.1171 44.6484 64.8163L50.1343 41.765L55.0477 41.0039L53.0835 49.1837C53.492 48.9991 53.916 48.8508 54.3505 48.7405C54.7964 48.6321 55.254 48.5785 55.7129 48.5808H55.7133ZM51.5919 62.1548C52.3318 62.1548 53.0287 61.9728 53.6841 61.6157C54.3429 61.2556 54.921 60.7645 55.3829 60.1726C55.8655 59.5555 56.2454 58.8644 56.5077 58.1262C56.7827 57.363 56.9224 56.5577 56.9203 55.7466C56.9203 54.7318 56.7508 53.9417 56.4129 53.3689C56.075 52.7993 55.4498 52.5127 54.5415 52.5127C54.244 52.5127 53.8611 52.5695 53.3858 52.6709C52.9089 52.7785 52.4822 53.0021 52.0997 53.3384L50.0078 62.0252C50.1339 62.0475 50.2455 62.0687 50.3406 62.0886C50.4338 62.1102 50.5364 62.1254 50.6393 62.136C50.7478 62.1482 50.8719 62.1544 51.0218 62.1544L51.5915 62.1548H51.5919ZM62.0137 65.6116H66.7067L70.7021 48.9344H65.9769L62.0137 65.6116ZM68.9906 46.9026C68.3503 46.9079 67.7262 46.702 67.2147 46.3169C66.6834 45.9285 66.4199 45.3306 66.4199 44.5249C66.4199 44.0817 66.51 43.6659 66.6889 43.2736C66.8618 42.8936 67.1043 42.5493 67.4038 42.2585C67.704 41.9719 68.0526 41.7409 68.4335 41.5761C68.8298 41.4067 69.2568 41.3206 69.6879 41.3231C70.3425 41.3231 70.9329 41.5181 71.4622 41.9088C71.9892 42.3015 72.2542 42.8994 72.2542 43.7008C72.2568 44.1334 72.1646 44.5613 71.9841 44.9544C71.8128 45.3348 71.5711 45.6793 71.2715 45.9696C70.972 46.2565 70.6232 46.487 70.2418 46.65C69.8496 46.8215 69.4338 46.9026 68.9906 46.9026ZM79.7303 44.0178L74.8149 44.7792L71.7063 57.905C71.453 58.9828 71.3058 60.007 71.2627 60.9811C71.2208 61.9532 71.3708 62.8157 71.7063 63.5635C72.0465 64.3144 72.615 64.908 73.4192 65.3418C74.2245 65.7724 75.3548 65.9889 76.8128 65.9889C77.8268 65.9889 78.7042 65.9071 79.4453 65.7364C80.1443 65.58 80.8327 65.3793 81.5062 65.1354L81.1554 61.5198C80.6853 61.6861 80.2038 61.8183 79.7146 61.9153C79.2386 62.0108 78.7449 62.0589 78.2387 62.0589C77.624 62.0589 77.1553 61.9732 76.8277 61.8029C76.4988 61.6357 76.2725 61.3989 76.1464 61.0915C76.0196 60.785 75.9655 60.4209 75.989 59.9969C76.0094 59.5744 76.0822 59.1203 76.2106 58.6344L77.6044 52.8009H82.8369L83.7875 48.9336H78.5233L79.7303 44.0178ZM83.5814 58.9518C83.5814 57.5149 83.814 56.1607 84.2783 54.8922C84.7423 53.6229 85.4106 52.513 86.2774 51.5609C87.1414 50.6134 88.1942 49.8621 89.4337 49.3108C90.6662 48.7627 92.0475 48.4863 93.5689 48.4863C94.5218 48.4863 95.3726 48.5764 96.1215 48.7569C96.8732 48.9389 97.5529 49.1742 98.1679 49.4694L96.5498 53.1496C96.1185 52.9762 95.6794 52.8229 95.234 52.69C94.7798 52.5502 94.2258 52.4829 93.57 52.4829C92.0032 52.4829 90.7653 53.0231 89.8437 54.099C88.9252 55.1761 88.4628 56.6258 88.4628 58.4448C88.4628 59.5226 88.6957 60.3937 89.1624 61.0605C89.6268 61.7272 90.4846 62.0592 91.7299 62.0592C92.3442 62.0592 92.9378 61.995 93.5058 61.8697C94.0782 61.7429 94.5837 61.5831 95.0288 61.3944L95.3796 65.167C94.7375 65.4133 94.081 65.6204 93.4138 65.7872C92.6935 65.9633 91.8372 66.0542 90.844 66.0542C89.5332 66.0542 88.4229 65.8627 87.5153 65.4845C86.607 65.1012 85.8565 64.5919 85.2649 63.9467C84.6706 63.2999 84.2443 62.5443 83.9804 61.6779C83.7165 60.8115 83.5811 59.9004 83.5811 58.9518H83.5814ZM101.51 65.5452C102.336 65.8831 103.309 66.0538 104.429 66.0538C105.972 66.0538 107.332 65.7308 108.503 65.086C109.678 64.4415 110.654 63.6123 111.436 62.5983C112.219 61.5827 112.812 60.4395 113.212 59.1749C113.611 57.9049 113.812 56.634 113.812 55.3679C113.812 54.3543 113.676 53.4276 113.399 52.5948C113.126 51.7582 112.718 51.0366 112.182 50.422C111.639 49.8104 110.953 49.3324 110.121 48.9953C109.284 48.6574 108.316 48.4863 107.217 48.4863C105.717 48.4863 104.384 48.8097 103.224 49.4526C102.063 50.0997 101.076 50.9297 100.277 51.9449C99.4717 52.9585 98.8629 54.0994 98.4522 55.3679C98.0395 56.6352 97.8359 57.9053 97.8359 59.1753C97.8359 60.1882 97.9691 61.1125 98.2458 61.9472C98.5226 62.7823 98.9263 63.507 99.4666 64.1185C100.006 64.7332 100.687 65.2077 101.51 65.5452ZM106.775 52.4837C106.079 52.4837 105.464 52.6853 104.937 53.0842C104.409 53.4879 103.965 53.9957 103.607 54.6072C103.246 55.2219 102.978 55.8922 102.797 56.6208C102.616 57.3509 102.528 58.0419 102.528 58.6969C102.528 59.7552 102.699 60.5801 103.035 61.1728C103.374 61.7625 103.986 62.0596 104.874 62.0596C105.572 62.0596 106.184 61.8588 106.714 61.4559C107.239 61.0554 107.684 60.5476 108.044 59.9341C108.403 59.3234 108.674 58.6507 108.855 57.9206C109.032 57.1928 109.123 56.4986 109.123 55.844C109.123 54.7885 108.953 53.9624 108.614 53.37C108.276 52.78 107.662 52.4833 106.775 52.4833V52.4837ZM114.23 65.6116H118.927L122.921 48.9344H118.194L114.23 65.6116ZM121.206 46.9026C120.567 46.908 119.943 46.7021 119.432 46.3169C118.903 45.9285 118.638 45.3306 118.638 44.5249C118.638 44.0817 118.729 43.6659 118.908 43.2737C119.08 42.8932 119.322 42.5487 119.622 42.2585C119.923 41.9718 120.272 41.7408 120.653 41.5761C121.048 41.4066 121.473 41.3205 121.903 41.3231C122.559 41.3231 123.152 41.5181 123.68 41.9088C124.208 42.3015 124.474 42.8994 124.474 43.7008C124.474 44.1455 124.38 44.5629 124.202 44.9544C124.025 45.3459 123.786 45.683 123.491 45.9696C123.191 46.2558 122.843 46.4862 122.462 46.65C122.068 46.8215 121.652 46.9026 121.206 46.9026ZM127.489 49.3271C127.057 49.4634 126.659 49.5886 126.303 49.6928L122.465 65.6088H127.19L130.266 52.7054C130.882 52.5798 131.508 52.5153 132.136 52.5128C132.771 52.5128 133.238 52.6346 133.548 52.8769C133.849 53.1157 134.056 53.453 134.133 53.8295C134.22 54.2222 134.225 54.6767 134.149 55.1919C134.075 55.7119 133.975 56.2443 133.848 56.7944L131.755 65.61H136.479L138.638 56.6053C139.249 54.1118 139.086 52.1452 138.145 50.708C137.203 49.2707 135.497 48.55 133.022 48.55C132.18 48.55 131.421 48.5868 130.757 48.6623C130.091 48.7363 129.487 48.8322 128.951 48.9497C128.458 49.052 127.97 49.178 127.489 49.3271Z" fill="#757B8A"/>
</svg>
