<svg width="157" height="107" viewBox="0 0 157 107" fill="none" xmlns="http://www.w3.org/2000/svg">
<path d="M92.4426 63.2525C85.4953 68.3893 75.39 71.1262 66.6742 71.1262C54.4637 71.1262 43.5163 66.6209 35.1795 59.1262C34.5479 58.5367 35.0953 57.7367 35.8953 58.1998C44.8637 63.4209 55.9374 66.5367 67.39 66.5367C75.0953 66.5367 83.6005 64.9367 91.4321 61.6104C92.611 61.1472 93.5795 62.4104 92.4426 63.2525Z" fill="#757B8A"/>
<path d="M95.3468 59.9261C94.4626 58.7893 89.4521 59.3787 87.2205 59.6735C86.5468 59.7577 86.4205 59.1682 87.0521 58.7472C91.0521 55.9261 97.5784 56.7682 98.3363 57.6945C99.0942 58.6208 98.1258 65.1893 94.3784 68.305C93.7889 68.7682 93.2416 68.5156 93.4942 67.884C94.3363 65.7787 96.231 61.105 95.3468 59.9261Z" fill="#757B8A"/>
<path fill-rule="evenodd" clip-rule="evenodd" d="M42.8418 55.9268H39.1366C38.7997 55.8847 38.505 55.6321 38.4629 55.2953V36.2637C38.4629 35.8847 38.7997 35.59 39.1787 35.59H42.6313C43.0103 35.59 43.2629 35.8847 43.305 36.2216V38.7058H43.3892C44.2734 36.3058 45.9997 35.1689 48.2734 35.1689C50.5892 35.1689 52.0629 36.3058 53.0734 38.7058C53.9576 36.3058 56.0208 35.1689 58.2103 35.1689C59.7682 35.1689 61.4524 35.8005 62.505 37.2742C63.5085 38.6361 63.4748 40.5165 63.4426 42.3183L63.4425 42.3185C63.4369 42.6335 63.4313 42.9461 63.4313 43.2532V55.2953C63.4313 55.6742 63.0945 55.9689 62.7155 55.9689H59.0524C58.6734 55.9268 58.3787 55.6321 58.3787 55.2953V45.19C58.3787 45.0182 58.3826 44.79 58.387 44.5301L58.387 44.5286L58.387 44.5284C58.4032 43.5785 58.4266 42.2058 58.2945 41.6111C57.9997 40.3479 57.1997 39.9689 56.105 39.9689C55.2208 39.9689 54.2524 40.5584 53.8734 41.5268C53.5278 42.41 53.5324 43.8184 53.5359 44.8898C53.5363 44.9933 53.5366 45.0936 53.5366 45.19V55.2953C53.5366 55.6742 53.1997 55.9689 52.8208 55.9689H49.1155C48.7366 55.9268 48.4418 55.6321 48.4418 55.2953V45.19C48.4418 44.9802 48.4452 44.76 48.4486 44.5335C48.4797 42.4868 48.5186 39.9268 46.1682 39.9268C43.594 39.9268 43.5971 42.7817 43.5996 44.99L43.5997 45.19V55.2953C43.5576 55.6321 43.2629 55.9268 42.8418 55.9268ZM87.3476 38.9584V36.2215C87.3476 35.8005 87.6424 35.5479 88.0213 35.5479H100.232C100.611 35.5479 100.948 35.8426 100.948 36.2215V38.5373C100.948 38.9163 100.611 39.4215 100.021 40.2636L93.7055 49.2742C96.0634 49.2321 98.5476 49.5689 100.653 50.7479C101.116 51.0005 101.242 51.4215 101.284 51.8005V54.7057C101.284 55.1268 100.863 55.59 100.4 55.3373C96.6529 53.3584 91.6424 53.1479 87.516 55.3794C87.095 55.59 86.6318 55.1689 86.6318 54.7479V51.9689C86.6318 51.5479 86.6318 50.79 87.095 50.1163L94.4213 39.6321H88.0634C87.6845 39.6321 87.3476 39.3373 87.3476 38.9584ZM119.978 45.9058C119.978 39.8847 116.989 35.1689 111.473 35.1689C106.084 35.1689 103.094 39.8005 103.136 45.7374C103.136 51.6321 106.084 56.3479 111.473 56.3479C116.694 56.3479 119.978 51.7163 119.978 45.9058ZM111.474 39.085C108.737 39.085 108.568 42.8323 108.568 45.1481L108.568 45.246C108.568 47.6008 108.567 52.4323 111.432 52.4323C114.295 52.4323 114.463 48.4323 114.463 45.9902C114.463 44.3902 114.379 42.4534 113.916 40.9376C113.495 39.5902 112.653 39.085 111.474 39.085ZM123.39 55.9268H127.095C127.474 55.9268 127.811 55.6321 127.853 55.2532V44.9795C127.853 43.6742 127.937 42.5374 128.442 41.3584C128.863 40.4321 129.705 39.8426 130.59 39.8426C132.952 39.8426 132.928 42.4066 132.909 44.4561C132.907 44.6352 132.905 44.8103 132.905 44.9795V55.3374C132.947 55.6321 133.242 55.8847 133.579 55.9268H137.284C137.663 55.9268 137.958 55.6742 138 55.3374V43.3374C138 41.4847 138 38.9163 137.032 37.4005C135.979 35.7584 134.337 35.1689 132.695 35.1689C130.126 35.1689 128.695 36.39 127.642 39.0005H127.558V36.0953C127.474 35.8005 127.221 35.5479 126.884 35.5479H123.432C123.053 35.5479 122.758 35.8426 122.716 36.1795V55.2532C122.716 55.59 123.011 55.8847 123.39 55.9268Z" fill="#757B8A"/>
<path fill-rule="evenodd" clip-rule="evenodd" d="M80.4844 55.9684C80.7791 56.1368 81.1159 56.0947 81.3686 55.8842C81.6376 55.66 81.9809 55.3669 82.3476 55.0538C83.014 54.4847 83.7578 53.8495 84.2738 53.4421C84.5686 53.2316 84.5265 52.8105 84.2738 52.4737C84.1926 52.357 84.1108 52.2433 84.0297 52.1306C83.438 51.3085 82.8844 50.5393 82.8844 49.0211V43.2526C82.8844 43.0598 82.8854 42.8681 82.8864 42.6776C82.8986 40.4552 82.9098 38.4039 81.2423 36.8526C79.8107 35.4632 77.4528 35 75.6423 35C72.1054 35 68.1896 36.3053 67.3475 40.6842C67.2633 41.1474 67.6001 41.3579 67.8949 41.4421L71.4738 41.8211C71.8107 41.8211 72.0212 41.4842 72.1054 41.1474C72.4001 39.6316 73.6633 38.9158 75.0949 38.9158C75.8528 38.9158 76.6949 39.2105 77.158 39.8842C77.642 40.5543 77.6322 41.4547 77.6235 42.2654C77.6223 42.3717 77.6212 42.4765 77.6212 42.5789V43.0421C77.2719 43.0832 76.9047 43.1221 76.526 43.1622C74.5771 43.3685 72.324 43.607 70.6317 44.3474C68.3159 45.3579 66.6738 47.3789 66.6738 50.4105C66.6738 54.2421 69.1159 56.1789 72.2317 56.1789C74.8422 56.1789 76.3159 55.5474 78.337 53.4842C78.4349 53.6249 78.5239 53.7558 78.6082 53.88C79.1045 54.6101 79.4407 55.1047 80.4844 55.9684ZM77.6215 47.0582C77.6214 46.9834 77.6213 46.9081 77.6213 46.8322V46.0322C74.9265 46.0322 72.1055 46.6217 72.1055 49.7796C72.1055 51.3796 72.9476 52.4743 74.3792 52.4743C75.4318 52.4743 76.3581 51.8428 76.9476 50.7901C77.6254 49.5541 77.6236 48.3935 77.6215 47.0582Z" fill="#757B8A"/>
<path fill-rule="evenodd" clip-rule="evenodd" d="M31.8105 55.9684C32.1053 56.1368 32.4421 56.0947 32.6947 55.8842C32.9638 55.66 33.307 55.3669 33.6737 55.0538C34.3402 54.4847 35.084 53.8495 35.6 53.4421C35.8947 53.2316 35.8526 52.8105 35.6 52.4737C35.5188 52.357 35.437 52.2433 35.3559 52.1306C34.7642 51.3085 34.2105 50.5393 34.2105 49.0211V43.2526C34.2105 43.0598 34.2116 42.8681 34.2126 42.6776C34.2248 40.4552 34.236 38.4039 32.5684 36.8526C31.1368 35.4632 28.7789 35 26.9684 35C23.4316 35 19.5158 36.3053 18.6737 40.6842C18.5895 41.1474 18.9263 41.3579 19.2211 41.4421L22.8 41.8211C23.1368 41.8211 23.3474 41.4842 23.4316 41.1474C23.7263 39.6316 24.9895 38.9158 26.4211 38.9158C27.1789 38.9158 28.0211 39.2105 28.4842 39.8842C28.9681 40.5543 28.9584 41.4547 28.9496 42.2654C28.9485 42.3717 28.9474 42.4765 28.9474 42.5789V43.0421C28.598 43.0832 28.2308 43.1221 27.8522 43.1622C25.9033 43.3685 23.6502 43.607 21.9579 44.3474C19.6421 45.3579 18 47.3789 18 50.4105C18 54.2421 20.4421 56.1789 23.5579 56.1789C26.1684 56.1789 27.6421 55.5474 29.6632 53.4842C29.761 53.6249 29.85 53.7558 29.9344 53.88C30.4307 54.6101 30.7669 55.1047 31.8105 55.9684ZM28.9897 47.0582C28.9895 46.9834 28.9894 46.9081 28.9894 46.8322V46.0322C26.2947 46.0322 23.4736 46.6217 23.4736 49.7796C23.4736 51.3796 24.3157 52.4743 25.7473 52.4743C26.7999 52.4743 27.7263 51.8428 28.3157 50.7901C28.9936 49.5541 28.9918 48.3935 28.9897 47.0582Z" fill="#757B8A"/>
</svg>
